<svg width="80" height="46" viewBox="0 0 80 46" fill="none" xmlns="http://www.w3.org/2000/svg">
<mask id="path-1-outside-1_95_647" maskUnits="userSpaceOnUse" x="-2.5" y="-3" width="85" height="52" fill="black">
<rect fill="white" x="-2.5" y="-3" width="85" height="52"/>
<path d="M22.7203 12.592V34.608H29.4403V46H0.89625V34.608H7.61625V12.592H0.89625V1.2H29.4403V12.592H22.7203ZM57.0003 0.175999C61.3523 0.175999 65.1923 1.05067 68.5203 2.8C71.8483 4.50666 74.4296 7.024 76.2643 10.352C78.1416 13.6373 79.0803 17.5627 79.0803 22.128V46H63.9762V36.976H49.7683V46H34.9203V22.128C34.9203 17.5627 35.8376 13.6373 37.6723 10.352C39.5496 7.024 42.1523 4.50666 45.4803 2.8C48.8083 1.05067 52.6483 0.175999 57.0003 0.175999ZM63.9762 25.584V20.848C63.9762 18.0747 63.3149 15.984 61.9923 14.576C60.7123 13.1253 59.0056 12.4 56.8723 12.4C54.7389 12.4 53.0109 13.1253 51.6883 14.576C50.4083 15.984 49.7683 18.0747 49.7683 20.848V25.584H63.9762Z"/>
</mask>
<path d="M22.7203 12.592V34.608H29.4403V46H0.89625V34.608H7.61625V12.592H0.89625V1.2H29.4403V12.592H22.7203ZM57.0003 0.175999C61.3523 0.175999 65.1923 1.05067 68.5203 2.8C71.8483 4.50666 74.4296 7.024 76.2643 10.352C78.1416 13.6373 79.0803 17.5627 79.0803 22.128V46H63.9762V36.976H49.7683V46H34.9203V22.128C34.9203 17.5627 35.8376 13.6373 37.6723 10.352C39.5496 7.024 42.1523 4.50666 45.4803 2.8C48.8083 1.05067 52.6483 0.175999 57.0003 0.175999ZM63.9762 25.584V20.848C63.9762 18.0747 63.3149 15.984 61.9923 14.576C60.7123 13.1253 59.0056 12.4 56.8723 12.4C54.7389 12.4 53.0109 13.1253 51.6883 14.576C50.4083 15.984 49.7683 18.0747 49.7683 20.848V25.584H63.9762Z" fill="url(#paint0_linear_95_647)"/>
<path d="M22.7203 12.592V9.592H19.7203V12.592H22.7203ZM22.7203 34.608H19.7203V37.608H22.7203V34.608ZM29.4403 34.608H32.4403V31.608H29.4403V34.608ZM29.4403 46V49H32.4403V46H29.4403ZM0.89625 46H-2.10375V49H0.89625V46ZM0.89625 34.608V31.608H-2.10375V34.608H0.89625ZM7.61625 34.608V37.608H10.6163V34.608H7.61625ZM7.61625 12.592H10.6163V9.592H7.61625V12.592ZM0.89625 12.592H-2.10375V15.592H0.89625V12.592ZM0.89625 1.2V-1.8H-2.10375V1.2H0.89625ZM29.4403 1.2H32.4403V-1.8H29.4403V1.2ZM29.4403 12.592V15.592H32.4403V12.592H29.4403ZM19.7203 12.592V34.608H25.7203V12.592H19.7203ZM22.7203 37.608H29.4403V31.608H22.7203V37.608ZM26.4403 34.608V46H32.4403V34.608H26.4403ZM29.4403 43H0.89625V49H29.4403V43ZM3.89625 46V34.608H-2.10375V46H3.89625ZM0.89625 37.608H7.61625V31.608H0.89625V37.608ZM10.6163 34.608V12.592H4.61625V34.608H10.6163ZM7.61625 9.592H0.89625V15.592H7.61625V9.592ZM3.89625 12.592V1.2H-2.10375V12.592H3.89625ZM0.89625 4.2H29.4403V-1.8H0.89625V4.2ZM26.4403 1.2V12.592H32.4403V1.2H26.4403ZM29.4403 9.592H22.7203V15.592H29.4403V9.592ZM68.5202 2.8L67.1244 5.45549L67.1378 5.46254L67.1513 5.46945L68.5202 2.8ZM76.2643 10.352L73.637 11.8003L73.6481 11.8205L73.6595 11.8404L76.2643 10.352ZM79.0803 46V49H82.0803V46H79.0803ZM63.9762 46H60.9762V49H63.9762V46ZM63.9762 36.976H66.9762V33.976H63.9762V36.976ZM49.7682 36.976V33.976H46.7682V36.976H49.7682ZM49.7682 46V49H52.7682V46H49.7682ZM34.9202 46H31.9202V49H34.9202V46ZM37.6722 10.352L35.0593 8.87802L35.053 8.8893L37.6722 10.352ZM45.4803 2.8L46.8492 5.46945L46.8627 5.46254L46.8761 5.45549L45.4803 2.8ZM63.9762 25.584V28.584H66.9762V25.584H63.9762ZM61.9923 14.576L59.7427 16.5609L59.7737 16.5959L59.8057 16.63L61.9923 14.576ZM51.6883 14.576L49.4714 12.5547L49.4684 12.558L51.6883 14.576ZM49.7682 25.584H46.7682V28.584H49.7682V25.584ZM57.0003 3.176C60.9429 3.176 64.2902 3.96571 67.1244 5.45549L69.9161 0.144506C66.0943 -1.86438 61.7616 -2.824 57.0003 -2.824V3.176ZM67.1513 5.46945C69.9386 6.89884 72.0859 8.98664 73.637 11.8003L78.8915 8.90366C76.7733 5.06136 73.7579 2.11449 69.8892 0.130547L67.1513 5.46945ZM73.6595 11.8404C75.2292 14.5873 76.0803 17.9771 76.0803 22.128H82.0803C82.0803 17.1482 81.054 12.6873 78.869 8.86358L73.6595 11.8404ZM76.0803 22.128V46H82.0803V22.128H76.0803ZM79.0803 43H63.9762V49H79.0803V43ZM66.9762 46V36.976H60.9762V46H66.9762ZM63.9762 33.976H49.7682V39.976H63.9762V33.976ZM46.7682 36.976V46H52.7682V36.976H46.7682ZM49.7682 43H34.9202V49H49.7682V43ZM37.9202 46V22.128H31.9202V46H37.9202ZM37.9202 22.128C37.9202 17.9661 38.7546 14.5668 40.2915 11.8147L35.053 8.8893C32.9206 12.7078 31.9202 17.1592 31.9202 22.128H37.9202ZM40.2852 11.826C41.8805 8.99792 44.0559 6.90194 46.8492 5.46945L44.1113 0.130547C40.2486 2.11139 37.2187 5.05007 35.0593 8.87803L40.2852 11.826ZM46.8761 5.45549C49.7103 3.96571 53.0576 3.176 57.0003 3.176V-2.824C52.2389 -2.824 47.9062 -1.86438 44.0844 0.144506L46.8761 5.45549ZM66.9762 25.584V20.848H60.9762V25.584H66.9762ZM66.9762 20.848C66.9762 17.6426 66.2136 14.688 64.1788 12.522L59.8057 16.63C60.4163 17.28 60.9762 18.5068 60.9762 20.848H66.9762ZM64.2418 12.5911C62.3299 10.4243 59.7673 9.4 56.8723 9.4V15.4C58.2439 15.4 59.0946 15.8264 59.7427 16.5609L64.2418 12.5911ZM56.8723 9.4C53.9771 9.4 51.4154 10.4226 49.4714 12.5547L53.9051 16.5973C54.6064 15.8281 55.5008 15.4 56.8723 15.4V9.4ZM49.4684 12.558C47.4986 14.7248 46.7682 17.6648 46.7682 20.848H52.7682C52.7682 18.4845 53.3179 17.2432 53.9081 16.594L49.4684 12.558ZM46.7682 20.848V25.584H52.7682V20.848H46.7682ZM49.7682 28.584H63.9762V22.584H49.7682V28.584Z" fill="black" mask="url(#path-1-outside-1_95_647)"/>
<defs>
<linearGradient id="paint0_linear_95_647" x1="40.5" y1="-16" x2="40.5" y2="62" gradientUnits="userSpaceOnUse">
<stop stop-color="#452E17"/>
<stop offset="0.31" stop-color="#A6967F"/>
<stop offset="0.58" stop-color="#FAEFD8"/>
</linearGradient>
</defs>
</svg>
