<svg width="83" height="72" viewBox="0 0 83 72" fill="none" xmlns="http://www.w3.org/2000/svg">
<g filter="url(#filter0_d_94_1717)">
<path d="M19 3.46154H9.19231L8.03847 5.19231V15.5769L5.73077 45.5769L9.19231 50.7692L23.6154 52.5L41.5 60L46.1154 57.1154L62.2692 52.5L75.5385 50.7692V3.46154L69.7692 2.30769L56.5 5.19231L47.8462 8.65385L42.6539 13.8462H39.1923L31.6923 6.34616L19 3.46154Z" fill="#FAEFD8" stroke="black" stroke-width="1.15385"/>
<path d="M18.9999 3.46154H9.19225L8.03841 5.19231V15.5769L5.73071 45.5769L9.19225 50.7692L23.6153 52.5L41.4999 60L46.1153 57.1154L62.2692 52.5L75.5384 50.7692V3.46154L69.7692 2.30769L56.4999 5.19231L47.8461 8.65385L42.6538 13.8462H39.1923L31.6923 6.34616L18.9999 3.46154Z" fill="url(#paint0_linear_94_1717)" stroke="black" stroke-width="1.15385"/>
<path fill-rule="evenodd" clip-rule="evenodd" d="M9.5 4.92312C19.4758 4.96875 26.4293 6.22286 31.1063 8.45742C35.5364 10.574 37.9569 13.577 39.0384 17.5484V55.7537C33.4409 51.6204 24.8383 49.2356 9.54605 49.2308C9.52506 49.1764 9.5 49.0808 9.5 48.9339V4.92312ZM43.9615 55.7502C49.5695 51.6022 58.1687 49.2308 73.5 49.2308V4.92309C63.5242 4.96873 56.5706 6.22286 51.8937 8.45742C47.4636 10.574 45.043 13.577 43.9615 17.5484V55.7502ZM41.5 11.032C39.6315 8.1185 36.9006 5.76967 33.2287 4.01531C27.5831 1.318 19.7709 0.0460504 9.51103 4.15451e-05L9.50928 3.49428e-05C8.86087 -0.00241028 8.21839 0.123501 7.61887 0.370507C7.01935 0.617513 6.47464 0.980731 6.01614 1.43923C5.55764 1.89773 5.19442 2.44244 4.94741 3.04196C4.70109 3.63981 4.5752 4.28038 4.57692 4.92695V48.9339C4.57692 50.1872 4.96517 51.469 5.825 52.4788C6.71589 53.5252 8.01521 54.1539 9.5 54.1539C28.8994 54.1539 35.5967 58.0949 39.5771 63.0752C40.0441 63.6596 40.7514 63.9998 41.4994 64C42.2474 64.0002 42.9549 63.6602 43.4222 63.0761C47.4298 58.0663 54.0992 54.1539 73.5 54.1539C74.8056 54.1539 76.0579 53.6352 76.9811 52.7119C77.9044 51.7887 78.423 50.5364 78.423 49.2308V4.92645C78.4247 4.28004 78.2988 3.63965 78.0526 3.04196C77.8056 2.44244 77.4423 1.89773 76.9838 1.43923C76.5253 0.980728 75.9806 0.617511 75.3811 0.370507C74.7816 0.123502 74.1391 -0.00241028 73.4907 3.49428e-05L73.4889 4.22787e-05C63.2291 0.0460505 55.4168 1.318 49.7713 4.01531C46.0994 5.76967 43.3685 8.1185 41.5 11.032Z" fill="#452E17"/>
</g>
<defs>
<filter id="filter0_d_94_1717" x="0.576904" y="0" width="81.8462" height="72" filterUnits="userSpaceOnUse" color-interpolation-filters="sRGB">
<feFlood flood-opacity="0" result="BackgroundImageFix"/>
<feColorMatrix in="SourceAlpha" type="matrix" values="0 0 0 0 0 0 0 0 0 0 0 0 0 0 0 0 0 0 127 0" result="hardAlpha"/>
<feOffset dy="4"/>
<feGaussianBlur stdDeviation="2"/>
<feComposite in2="hardAlpha" operator="out"/>
<feColorMatrix type="matrix" values="0 0 0 0 0.270588 0 0 0 0 0.180392 0 0 0 0 0.0901961 0 0 0 0.25 0"/>
<feBlend mode="normal" in2="BackgroundImageFix" result="effect1_dropShadow_94_1717"/>
<feBlend mode="normal" in="SourceGraphic" in2="effect1_dropShadow_94_1717" result="shape"/>
</filter>
<linearGradient id="paint0_linear_94_1717" x1="40.6346" y1="2.30769" x2="40.6346" y2="60" gradientUnits="userSpaceOnUse">
<stop stop-color="#452E17"/>
<stop offset="0.31" stop-color="#A6967F"/>
<stop offset="0.58" stop-color="#FAEFD8"/>
</linearGradient>
</defs>
</svg>
