<svg width="256" height="256" viewBox="0 0 256 256" fill="none" xmlns="http://www.w3.org/2000/svg">
<rect width="256" height="256" rx="48" fill="#F8EED9"/>
<path d="M213.857 115.369C238.076 91.1608 245.276 59.0855 229.943 43.731C214.605 28.409 182.519 35.5983 158.305 59.8174C137.502 80.6262 129.277 107.204 137.073 124.022L133.831 127.275L109.623 103.067C123.877 88.824 121.307 79.6666 121.307 79.6666L70.6238 29L18 81.6076L68.6937 132.301C68.6937 132.301 78.7457 133.933 92.0724 120.612L116.292 144.809L111.103 150.009L105.692 144.609L47.5921 202.687L70.9654 226.087L129.076 167.993L123.654 162.582L128.87 157.393L138.852 167.369L135.447 170.769L189.166 224.499L213.52 200.133L159.796 146.414L156.396 149.835L146.393 139.848L149.668 136.595C166.465 144.403 193.053 136.189 213.857 115.369ZM225.063 77.8611L174.386 128.533L168.525 122.688L219.224 72.0056L225.063 77.8611ZM213.369 66.1501L162.68 116.844L156.836 110.977L207.535 60.3271L213.369 66.1501ZM195.829 48.6106L201.668 54.4553L150.996 105.149L145.141 99.2826L195.829 48.6106Z" fill="#503A23"/>
</svg>
