<svg width="256" height="256" viewBox="0 0 256 256" fill="none" xmlns="http://www.w3.org/2000/svg">
<path d="M176.598 213.231C180.321 216.614 182.025 221.707 179.712 225.714C177.149 230.153 172.189 232.878 166.988 229.876C148.797 219.373 98.6521 184.668 95.5558 182.88C91.6855 180.646 85.3237 182.727 80.6257 183.713C78.1881 184.225 74.0237 184.422 68.2182 181.07C62.4127 177.719 25.6979 152.822 25.6979 152.822C24.6658 152.227 22.7796 150.727 23.4914 149.494C24.2033 148.261 26.1073 148.538 27.6555 149.432L67.133 172.224C68.2734 172.335 70.7321 172.247 71.4439 171.014C72.1558 169.781 71.0021 167.608 70.3363 166.676L30.2315 142.289C29.7644 141.608 28.2964 141.171 29.5421 139.014C30.6098 137.164 31.7813 138.115 32.545 138.281L73.7175 160.819C74.8579 160.93 76.9607 161.459 78.0284 159.61C78.7403 158.377 77.468 156.409 76.7429 155.579L36.1042 132.117C35.5778 131.539 34.6317 130.198 35.0588 129.458C36.1635 127.545 37.821 128.188 37.9029 128.219C37.8696 128.203 37.8527 128.194 37.8527 128.194C37.8981 128.217 37.9133 128.223 37.9029 128.219C39.5666 129.041 82.0888 150.035 85.1244 151.788C88.2207 153.576 91.9759 157.218 93.4389 161.52C95.3517 167.145 96.0214 171.348 100.361 174.558C102.892 176.43 172.302 209.329 176.598 213.231Z" fill="#503A23"/>
<path d="M179.712 225.714C182.025 221.707 180.321 216.614 176.598 213.231C172.302 209.329 102.892 176.43 100.361 174.558C96.0214 171.348 95.3517 167.145 93.4389 161.52C91.9759 157.218 88.2207 153.576 85.1244 151.788C82.0282 150 37.8527 128.194 37.8527 128.194C38.2533 128.394 36.3046 127.301 35.0588 129.458C34.6317 130.198 35.5778 131.539 36.1042 132.117L76.7429 155.579C77.468 156.409 78.7403 158.377 78.0284 159.61C76.9607 161.459 74.8579 160.93 73.7175 160.819L32.545 138.281C31.7813 138.115 30.6098 137.164 29.5421 139.014C28.2964 141.171 29.7644 141.608 30.2315 142.289L70.3363 166.676C71.0021 167.608 72.1558 169.781 71.4439 171.014C70.7321 172.247 68.2734 172.335 67.133 172.224L27.6555 149.432C26.1073 148.538 24.2033 148.261 23.4914 149.494C22.7796 150.727 24.6658 152.227 25.6979 152.822C25.6979 152.822 62.4127 177.719 68.2182 181.07C74.0237 184.422 78.1881 184.225 80.6257 183.713C85.3237 182.727 91.6855 180.646 95.5558 182.88C98.6521 184.668 148.797 219.373 166.988 229.876C172.189 232.878 177.149 230.153 179.712 225.714Z" stroke="#503A23"/>
<path d="M152.719 187.043C146.527 188.316 104.449 217.788 83.422 231.983C78.4237 233.636 69.6233 235.264 66.4911 229.839C63.2879 224.291 69.7109 217.295 73.4563 214.721C96.626 202.988 142.282 181.15 146.668 176.562C149.187 173.928 153.865 165.283 155.257 160.507C156.895 157.096 163.012 148.632 174.376 142.071C188.581 133.87 217.382 127.516 224.5 139.846C231.619 152.175 206.184 174.669 196.443 180.292C189.126 184.517 177.517 188.753 171.273 188.249C165.029 187.744 160.458 185.451 152.719 187.043Z" fill="#503A23" stroke="#503A23"/>
<rect x="85.5" y="107.5" width="77" height="32" rx="5.5" fill="#503A23" stroke="#503A23"/>
<path d="M107.878 102H85.3071C85.3071 96.4615 61 70.5315 61 47.8741C61 36.7972 74.6417 30 81.8346 30C92.9961 30 104.396 48.317 121.768 51.3986C133.704 53.5161 141.362 54.4196 153.02 50.6434C154.072 50.3025 154.722 49.0866 154.508 47.8741C154.261 46.4785 152.911 45.6335 151.532 45.8601C125.488 50.1399 112.343 40.8252 112.343 40.8252C112.343 40.8252 120.268 42.1725 125.488 41.8322C142.351 40.7326 150.26 30 167.157 30C178.567 30 187 39.0169 187 50.1399C187 68.7692 170.382 86.6434 162.197 102H136.65L141.114 85.1329C141.114 85.1329 140.453 81.2825 138.634 81.1049C136.992 80.9446 135.409 83.8741 135.409 83.8741L130.697 102H113.583L104.654 66.2518C104.654 66.2518 102.831 62.6332 100.933 63.2308C99.4413 63.7003 98.9488 66.2518 98.9488 66.2518L107.878 102Z" fill="#503A23" stroke="#503A23"/>
</svg>
