<svg width="85" height="52" viewBox="0 0 85 52" fill="none" xmlns="http://www.w3.org/2000/svg">
<path d="M33.452 37.432V35.932H31.952H26.732V16.916H31.952H33.452V15.416V4.024V2.524H31.952H3.40802H1.90802V4.024V15.416V16.916H3.40802H8.62802V35.932H3.40802H1.90802V37.432V48.824V50.324H3.40802H31.952H33.452V48.824V37.432ZM81.592 50.324H83.092V48.824V24.952C83.092 20.1839 82.1114 15.9941 80.084 12.4417C78.1092 8.86387 75.3151 6.13641 71.7235 4.29289C68.1502 2.41605 64.066 1.5 59.512 1.5C54.9582 1.5 50.8741 2.41599 47.3008 4.29272C43.7087 6.13642 40.8946 8.86326 38.8775 12.439L38.8744 12.4446C36.8908 15.9966 35.932 20.1849 35.932 24.952V48.824V50.324H37.432H52.28H53.78V48.824V41.3H64.988V48.824V50.324H66.488H81.592ZM63.3793 18.3924L63.3947 18.41L63.4107 18.427C64.3774 19.456 64.988 21.1147 64.988 23.672V26.908H53.78V23.672C53.78 21.1042 54.3746 19.4384 55.3093 18.4097C56.3211 17.3004 57.6321 16.724 59.384 16.724C61.1365 16.724 62.4152 17.2998 63.3793 18.3924Z" fill="url(#paint0_linear_144_224)" stroke="black" stroke-width="3"/>
<defs>
<linearGradient id="paint0_linear_144_224" x1="42.5" y1="3" x2="42.5" y2="48.824" gradientUnits="userSpaceOnUse">
<stop stop-color="#452E17"/>
<stop offset="0.31" stop-color="#A6967F"/>
<stop offset="0.58" stop-color="#FAEFD8"/>
</linearGradient>
</defs>
</svg>
