<svg width="83" height="76" viewBox="0 0 83 76" fill="none" xmlns="http://www.w3.org/2000/svg">
<g filter="url(#filter0_d_94_1730)">
<path d="M71.16 19.4545H11.84C8.94098 19.4545 6.59088 21.8046 6.59088 24.7036V60.7509C6.59088 63.6499 8.94098 66 11.84 66H71.16C74.059 66 76.4091 63.6499 76.4091 60.7509V24.7036C76.4091 21.8046 74.059 19.4545 71.16 19.4545Z" fill="url(#paint0_linear_94_1730)"/>
<path d="M21.1363 2H61.8636H21.1363ZM15.3182 10.7273H67.6818H15.3182Z" fill="url(#paint1_linear_94_1730)"/>
<path d="M21.1363 2H61.8636M15.3182 10.7273H67.6818M11.84 19.4545H71.16C74.059 19.4545 76.4091 21.8046 76.4091 24.7036V60.7509C76.4091 63.6499 74.059 66 71.16 66H11.84C8.94098 66 6.59088 63.6499 6.59088 60.7509V24.7036C6.59088 21.8046 8.94098 19.4545 11.84 19.4545Z" stroke="#452E17" stroke-width="4" stroke-miterlimit="10" stroke-linecap="round" stroke-linejoin="round"/>
</g>
<defs>
<filter id="filter0_d_94_1730" x="0.590881" y="0" width="81.8182" height="76" filterUnits="userSpaceOnUse" color-interpolation-filters="sRGB">
<feFlood flood-opacity="0" result="BackgroundImageFix"/>
<feColorMatrix in="SourceAlpha" type="matrix" values="0 0 0 0 0 0 0 0 0 0 0 0 0 0 0 0 0 0 127 0" result="hardAlpha"/>
<feOffset dy="4"/>
<feGaussianBlur stdDeviation="2"/>
<feComposite in2="hardAlpha" operator="out"/>
<feColorMatrix type="matrix" values="0 0 0 0 0.270588 0 0 0 0 0.180392 0 0 0 0 0.0901961 0 0 0 0.25 0"/>
<feBlend mode="normal" in2="BackgroundImageFix" result="effect1_dropShadow_94_1730"/>
<feBlend mode="normal" in="SourceGraphic" in2="effect1_dropShadow_94_1730" result="shape"/>
</filter>
<linearGradient id="paint0_linear_94_1730" x1="41.5" y1="2" x2="41.5" y2="66" gradientUnits="userSpaceOnUse">
<stop stop-color="#452E17"/>
<stop offset="0.31" stop-color="#A6967F"/>
<stop offset="0.58" stop-color="#FAEFD8"/>
</linearGradient>
<linearGradient id="paint1_linear_94_1730" x1="41.5" y1="2" x2="41.5" y2="66" gradientUnits="userSpaceOnUse">
<stop stop-color="#452E17"/>
<stop offset="0.31" stop-color="#A6967F"/>
<stop offset="0.58" stop-color="#FAEFD8"/>
</linearGradient>
</defs>
</svg>
