<svg width="75" height="76" viewBox="0 0 75 76" fill="none" xmlns="http://www.w3.org/2000/svg">
<g filter="url(#filter0_d_94_1772)">
<path d="M38.4406 24.4763C36.477 24.2823 34.5015 24.7001 32.7846 25.6723C31.0676 26.6445 29.6931 28.1236 28.8493 29.9071C28.0054 31.6907 27.7335 33.6914 28.0707 35.6355C28.4079 37.5796 29.3377 39.3719 30.7329 40.7671C32.1281 42.1623 33.9204 43.0921 35.8645 43.4293C37.8086 43.7665 39.8093 43.4946 41.5929 42.6507C43.3764 41.8069 44.8556 40.4324 45.8278 38.7154C46.7999 36.9985 47.2177 35.023 47.0238 33.0594C46.8027 30.8583 45.8273 28.8013 44.2631 27.237C42.6988 25.6727 40.6417 24.6973 38.4406 24.4763ZM61.4836 34C61.4775 35.0402 61.401 36.0789 61.2548 37.1088L68.0152 42.4112C68.3095 42.6552 68.5079 42.9957 68.575 43.3721C68.642 43.7486 68.5735 44.1366 68.3815 44.4673L61.986 55.5327C61.7918 55.8602 61.4882 56.1086 61.1287 56.2342C60.7693 56.3597 60.377 56.3544 60.0211 56.2191L53.3071 53.5155C52.9369 53.3681 52.5358 53.3148 52.1399 53.3605C51.744 53.4062 51.3657 53.5493 51.0387 53.7772C50.014 54.4828 48.9373 55.1096 47.8178 55.6523C47.4658 55.8234 47.1614 56.0785 46.9314 56.3951C46.7013 56.7117 46.5528 57.0801 46.4989 57.4677L45.4925 64.6288C45.4264 65.007 45.2311 65.3505 44.9398 65.6006C44.6485 65.8507 44.2794 65.9919 43.8955 66H31.1045C30.727 65.9935 30.363 65.8585 30.0724 65.6174C29.7818 65.3763 29.5821 65.0435 29.506 64.6736L28.5011 57.523C28.4447 57.1311 28.2923 56.7593 28.0575 56.4405C27.8228 56.1217 27.5128 55.8658 27.1553 55.6957C26.0372 55.156 24.9641 54.5274 23.9464 53.8161C23.6205 53.5894 23.2434 53.4473 22.849 53.4026C22.4545 53.358 22.0552 53.4122 21.6869 53.5604L14.9744 56.2624C14.6187 56.3979 14.2266 56.4035 13.8671 56.2782C13.5077 56.1529 13.204 55.9048 13.0095 55.5776L6.61403 44.5121C6.42175 44.1815 6.35304 43.7934 6.42013 43.4169C6.48721 43.0404 6.68575 42.6999 6.98038 42.4561L12.694 37.9701C13.0071 37.7216 13.2531 37.3989 13.4097 37.0312C13.5664 36.6635 13.6288 36.2626 13.5912 35.8647C13.5374 35.2411 13.5045 34.6191 13.5045 33.9955C13.5045 33.372 13.5359 32.7589 13.5912 32.1488C13.6247 31.7533 13.5593 31.3557 13.4008 30.9918C13.2424 30.628 12.9959 30.3092 12.6836 30.0643L6.97291 25.5783C6.68306 25.3332 6.4887 24.9939 6.42391 24.6199C6.35911 24.2459 6.428 23.861 6.61851 23.5327L13.014 12.4673C13.2083 12.1398 13.5118 11.8914 13.8713 11.7658C14.2308 11.6403 14.623 11.6456 14.9789 11.7809L21.6929 14.4845C22.0632 14.6319 22.4642 14.6852 22.8601 14.6395C23.256 14.5938 23.6344 14.4507 23.9613 14.2228C24.986 13.5172 26.0627 12.8903 27.1823 12.3477C27.5342 12.1766 27.8387 11.9215 28.0687 11.6049C28.2987 11.2883 28.4472 10.9199 28.5011 10.5323L29.5075 3.37121C29.5736 2.99302 29.769 2.64952 30.0603 2.39941C30.3516 2.14931 30.7207 2.00813 31.1045 2H43.8955C44.273 2.00653 44.6371 2.14146 44.9276 2.38256C45.2182 2.62365 45.418 2.95653 45.494 3.32635L46.4989 10.477C46.5553 10.8689 46.7077 11.2407 46.9425 11.5595C47.1773 11.8783 47.4872 12.1342 47.8447 12.3043C48.9629 12.844 50.036 13.4726 51.0537 14.1839C51.3795 14.4106 51.7566 14.5527 52.1511 14.5974C52.5455 14.642 52.9448 14.5878 53.3131 14.4396L60.0256 11.7376C60.3813 11.6021 60.7735 11.5965 61.1329 11.7218C61.4923 11.8471 61.796 12.0952 61.9905 12.4224L68.386 23.4879C68.5783 23.8184 68.647 24.2066 68.5799 24.5831C68.5128 24.9596 68.3143 25.3001 68.0196 25.5439L62.306 30.0299C61.9916 30.2776 61.7442 30.6 61.5861 30.9677C61.4281 31.3354 61.3646 31.7368 61.4013 32.1353C61.4507 32.7544 61.4836 33.3764 61.4836 34Z" fill="url(#paint0_linear_94_1772)"/>
<path d="M38.4406 24.4763C36.477 24.2823 34.5015 24.7001 32.7846 25.6723C31.0676 26.6445 29.6931 28.1236 28.8493 29.9071C28.0054 31.6907 27.7335 33.6914 28.0707 35.6355C28.4079 37.5796 29.3377 39.3719 30.7329 40.7671C32.1281 42.1623 33.9204 43.0921 35.8645 43.4293C37.8086 43.7665 39.8093 43.4946 41.5929 42.6507C43.3764 41.8069 44.8556 40.4324 45.8278 38.7154C46.7999 36.9985 47.2177 35.023 47.0238 33.0594C46.8027 30.8583 45.8273 28.8013 44.2631 27.237C42.6988 25.6727 40.6417 24.6973 38.4406 24.4763ZM61.4836 34C61.4775 35.0402 61.401 36.0789 61.2548 37.1088L68.0152 42.4112C68.3095 42.6552 68.5079 42.9957 68.575 43.3721C68.642 43.7486 68.5735 44.1366 68.3815 44.4673L61.986 55.5327C61.7918 55.8602 61.4882 56.1086 61.1287 56.2342C60.7693 56.3597 60.377 56.3544 60.0211 56.2191L53.3071 53.5155C52.9369 53.3681 52.5358 53.3148 52.1399 53.3605C51.744 53.4062 51.3657 53.5493 51.0387 53.7772C50.014 54.4828 48.9373 55.1096 47.8178 55.6523C47.4658 55.8234 47.1614 56.0785 46.9314 56.3951C46.7013 56.7117 46.5528 57.0801 46.4989 57.4677L45.4925 64.6288C45.4264 65.007 45.2311 65.3505 44.9398 65.6006C44.6485 65.8507 44.2794 65.9919 43.8955 66H31.1045C30.727 65.9935 30.363 65.8585 30.0724 65.6174C29.7818 65.3763 29.5821 65.0435 29.506 64.6736L28.5011 57.523C28.4447 57.1311 28.2923 56.7593 28.0575 56.4405C27.8228 56.1217 27.5128 55.8658 27.1553 55.6957C26.0372 55.156 24.9641 54.5274 23.9464 53.8161C23.6205 53.5894 23.2434 53.4473 22.849 53.4026C22.4545 53.358 22.0552 53.4122 21.6869 53.5604L14.9744 56.2624C14.6187 56.3979 14.2266 56.4035 13.8671 56.2782C13.5077 56.1529 13.204 55.9048 13.0095 55.5776L6.61403 44.5121C6.42175 44.1815 6.35304 43.7934 6.42013 43.4169C6.48721 43.0404 6.68575 42.6999 6.98038 42.4561L12.694 37.9701C13.0071 37.7216 13.2531 37.3989 13.4097 37.0312C13.5664 36.6635 13.6288 36.2626 13.5912 35.8647C13.5374 35.2411 13.5045 34.6191 13.5045 33.9955C13.5045 33.372 13.5359 32.7589 13.5912 32.1488C13.6247 31.7533 13.5593 31.3557 13.4008 30.9918C13.2424 30.628 12.9959 30.3092 12.6836 30.0643L6.97291 25.5783C6.68306 25.3332 6.4887 24.9939 6.42391 24.6199C6.35911 24.2459 6.428 23.861 6.61851 23.5327L13.014 12.4673C13.2083 12.1398 13.5118 11.8914 13.8713 11.7658C14.2308 11.6403 14.623 11.6456 14.9789 11.7809L21.6929 14.4845C22.0632 14.6319 22.4642 14.6852 22.8601 14.6395C23.256 14.5938 23.6344 14.4507 23.9613 14.2228C24.986 13.5172 26.0627 12.8903 27.1823 12.3477C27.5342 12.1766 27.8387 11.9215 28.0687 11.6049C28.2987 11.2883 28.4472 10.9199 28.5011 10.5323L29.5075 3.37121C29.5736 2.99302 29.769 2.64952 30.0603 2.39941C30.3516 2.14931 30.7207 2.00813 31.1045 2H43.8955C44.273 2.00653 44.6371 2.14146 44.9276 2.38256C45.2182 2.62365 45.418 2.95653 45.494 3.32635L46.4989 10.477C46.5553 10.8689 46.7077 11.2407 46.9425 11.5595C47.1773 11.8783 47.4872 12.1342 47.8447 12.3043C48.9629 12.844 50.036 13.4726 51.0537 14.1839C51.3795 14.4106 51.7566 14.5527 52.1511 14.5974C52.5455 14.642 52.9448 14.5878 53.3131 14.4396L60.0256 11.7376C60.3813 11.6021 60.7735 11.5965 61.1329 11.7218C61.4923 11.8471 61.796 12.0952 61.9905 12.4224L68.386 23.4879C68.5783 23.8184 68.647 24.2066 68.5799 24.5831C68.5128 24.9596 68.3143 25.3001 68.0196 25.5439L62.306 30.0299C61.9916 30.2776 61.7442 30.6 61.5861 30.9677C61.4281 31.3354 61.3646 31.7368 61.4013 32.1353C61.4507 32.7544 61.4836 33.3764 61.4836 34Z" stroke="#452E17" stroke-width="4" stroke-linecap="round" stroke-linejoin="round"/>
</g>
<defs>
<filter id="filter0_d_94_1772" x="0.395081" y="0" width="74.2099" height="76" filterUnits="userSpaceOnUse" color-interpolation-filters="sRGB">
<feFlood flood-opacity="0" result="BackgroundImageFix"/>
<feColorMatrix in="SourceAlpha" type="matrix" values="0 0 0 0 0 0 0 0 0 0 0 0 0 0 0 0 0 0 127 0" result="hardAlpha"/>
<feOffset dy="4"/>
<feGaussianBlur stdDeviation="2"/>
<feComposite in2="hardAlpha" operator="out"/>
<feColorMatrix type="matrix" values="0 0 0 0 0.270588 0 0 0 0 0.180392 0 0 0 0 0.0901961 0 0 0 0.25 0"/>
<feBlend mode="normal" in2="BackgroundImageFix" result="effect1_dropShadow_94_1772"/>
<feBlend mode="normal" in="SourceGraphic" in2="effect1_dropShadow_94_1772" result="shape"/>
</filter>
<linearGradient id="paint0_linear_94_1772" x1="37.5" y1="2" x2="37.5" y2="66" gradientUnits="userSpaceOnUse">
<stop stop-color="#452E17"/>
<stop offset="0.31" stop-color="#A6967F"/>
<stop offset="0.58" stop-color="#FAEFD8"/>
</linearGradient>
</defs>
</svg>
