<svg width="29" height="18" viewBox="0 0 29 18" fill="none" xmlns="http://www.w3.org/2000/svg">
<g clip-path="url(#clip0_119_343)">
<path d="M25.4347 8.03557L28.388 14.9737L27.9856 15.8746L23.117 15.6457L9.89133 16.2235L1.91743 15.6884L2.56802 10.3597L5.02054 5.83556L9.29426 2.55697L15.0061 1.86574L20.8143 3.37877L25.4347 8.03557Z" fill="#89F66E"/>
<path d="M1.2651 15.2056C1.35577 15.6379 1.46908 16.0654 1.60459 16.486C1.74181 16.8718 1.99731 16.9297 2.41331 16.8285C2.66067 16.7687 2.91403 16.738 3.16845 16.737C4.88384 16.7293 6.59998 16.7624 8.31507 16.7265C11.1745 16.6668 14.0317 16.5563 16.8906 16.4841C19.0984 16.4285 21.3064 16.3879 23.5148 16.3624C24.6579 16.3492 25.8009 16.3871 26.9449 16.3942C27.221 16.3941 27.497 16.3797 27.7717 16.351C28.5383 16.2755 28.8251 15.9841 28.7993 15.2082C28.7893 14.6764 28.7216 14.1473 28.5974 13.6302C27.3859 8.93162 24.9475 5.04982 20.5783 2.74463C16.1591 0.413044 11.6304 0.540227 7.22562 2.95038C5.51523 3.88624 4.22157 5.28425 3.16186 6.91272C1.89754 8.85568 1.3669 10.9979 1.33216 13.2879C1.32333 13.8387 1.29417 14.3891 1.2651 15.2056ZM13.7371 13.2625C12.2893 12.2466 10.9206 11.283 9.54658 10.3266C9.38396 10.2154 9.20837 10.1243 9.02372 10.0554C8.6599 9.91682 8.35232 9.99533 8.17233 10.2473C8.08361 10.3799 8.04571 10.54 8.06566 10.6982C8.08561 10.8564 8.16214 11.002 8.28115 11.1083C8.50666 11.3277 8.75365 11.5238 9.01832 11.6939C10.1651 12.4605 11.32 13.2152 12.4694 13.978C12.565 14.0492 12.6556 14.1269 12.7402 14.2109C12.6398 14.6151 12.5514 14.9711 12.4427 15.4088L2.90032 15.4206C2.79143 14.7455 2.92672 12.5168 3.11338 11.8786C3.40853 11.9752 3.70361 12.0726 3.9992 12.1686C4.42977 12.3083 4.85487 12.471 5.29305 12.579C5.46671 12.626 5.65155 12.6065 5.81149 12.5243C5.97143 12.4422 6.09484 12.3033 6.15754 12.135C6.27967 11.8107 6.16853 11.5016 5.83148 11.2755C5.69918 11.1899 5.55859 11.118 5.41171 11.0607C4.95605 10.8747 4.49642 10.6985 4.03929 10.5161C3.80861 10.4239 3.58 10.3264 3.32672 10.2215C3.9653 8.40768 4.85694 6.81525 6.26007 5.4846C6.61276 5.93398 6.93595 6.35528 7.2705 6.7672C7.40037 6.93982 7.5511 7.0958 7.71929 7.23153C8.03989 7.4695 8.35284 7.46885 8.59262 7.27264C8.83241 7.07643 8.89494 6.68784 8.69187 6.3559C8.54775 6.14508 8.38092 5.95069 8.19419 5.77629C7.85589 5.42918 7.5081 5.09193 7.11932 4.70658C9.18145 3.303 11.3514 2.57084 13.8159 2.49762C13.7642 3.17678 13.7038 3.78139 13.6792 4.38747C13.669 4.65932 13.6978 4.93124 13.7644 5.19499C13.8509 5.53606 14.1121 5.71237 14.462 5.73212C14.6318 5.74046 14.7992 5.68977 14.9358 5.58871C15.0723 5.48767 15.1696 5.34252 15.211 5.17793C15.269 4.95132 15.2916 4.71717 15.2781 4.48369C15.2634 3.8602 15.2279 3.23726 15.1979 2.55038C17.7209 2.79629 19.9005 3.61406 21.8813 5.1696C21.5299 5.51909 21.2278 5.79727 20.9526 6.10126C20.7624 6.29539 20.6038 6.51799 20.4825 6.76101C20.4247 6.88925 20.4144 7.03382 20.4535 7.16891C20.4925 7.30401 20.5784 7.42087 20.6957 7.49864C20.9328 7.67863 21.2067 7.7366 21.4658 7.55856C21.6581 7.42387 21.8331 7.26606 21.9868 7.08865C22.2792 6.75499 22.5506 6.4029 22.8494 6.03543C24.1668 7.35802 25.2631 8.88315 26.0964 10.5526C25.8692 10.6559 25.6778 10.7467 25.4829 10.8308C25.1212 10.987 24.7494 11.1223 24.399 11.3002C24.2052 11.3927 24.036 11.5296 23.9051 11.6995C23.6491 12.0637 23.8407 12.4885 24.2843 12.5169C24.5359 12.519 24.7842 12.4602 25.008 12.3455C25.5213 12.1042 26.0157 11.8217 26.5504 11.5388C27.0796 12.7529 27.4909 13.9437 27.6305 15.2604C24.2052 15.2257 20.8423 15.192 17.4792 15.1589C16.7994 13.2037 15.0957 12.7795 13.7371 13.2625ZM13.9463 15.2964C14.0254 14.5283 14.3264 14.2706 15.0141 14.3771C15.2717 14.4106 15.5186 14.5014 15.7363 14.6429C15.9541 14.7845 16.1371 14.973 16.2719 15.1948L13.9463 15.2964Z" fill="#452E17"/>
</g>
<defs>
<clipPath id="clip0_119_343">
<rect width="27.5556" height="16" fill="white" transform="matrix(-0.999047 0.0436468 0.0436468 0.999047 28.1932 0.40625)"/>
</clipPath>
</defs>
</svg>
