<svg width="375" height="182" viewBox="0 0 375 182" fill="none" xmlns="http://www.w3.org/2000/svg">
<rect width="375" height="182" fill="#FAEFD8"/>
<mask id="path-2-outside-1_189_235" maskUnits="userSpaceOnUse" x="161" y="48" width="185" height="38" fill="black">
<rect fill="white" x="161" y="48" width="185" height="38"/>
<path d="M162.16 50.448H170.32L180.016 71.232L189.76 50.448H197.872V84H189.952V67.152L181.936 84H178.096L170.128 67.152V84H162.16V50.448ZM202.191 50.448H210.687V84H202.191V50.448ZM225.452 84.72C223.34 84.72 221.244 84.512 219.164 84.096C217.084 83.712 215.372 83.168 214.028 82.464V74.832C215.756 75.728 217.548 76.4 219.404 76.848C221.292 77.296 223.084 77.52 224.78 77.52C226.348 77.52 227.532 77.28 228.332 76.8C229.132 76.32 229.532 75.632 229.532 74.736C229.532 74.064 229.308 73.488 228.86 73.008C228.444 72.496 227.82 72.032 226.988 71.616C226.156 71.2 224.86 70.624 223.1 69.888C219.996 68.576 217.74 67.12 216.332 65.52C214.924 63.92 214.22 61.952 214.22 59.616C214.22 57.696 214.748 55.984 215.804 54.48C216.892 52.976 218.396 51.808 220.316 50.976C222.236 50.144 224.444 49.728 226.94 49.728C228.988 49.728 230.812 49.888 232.412 50.208C234.012 50.528 235.548 51.04 237.02 51.744V59.184C234.204 57.712 231.372 56.976 228.524 56.976C226.988 56.976 225.756 57.232 224.828 57.744C223.932 58.224 223.484 58.928 223.484 59.856C223.484 60.784 223.948 61.536 224.876 62.112C225.804 62.688 227.516 63.472 230.012 64.464C232.284 65.392 234.044 66.304 235.292 67.2C236.572 68.096 237.5 69.136 238.076 70.32C238.652 71.504 238.94 73.008 238.94 74.832C238.94 77.936 237.804 80.368 235.532 82.128C233.292 83.856 229.932 84.72 225.452 84.72ZM251.562 84.72C249.45 84.72 247.354 84.512 245.273 84.096C243.194 83.712 241.482 83.168 240.138 82.464V74.832C241.866 75.728 243.658 76.4 245.514 76.848C247.402 77.296 249.194 77.52 250.89 77.52C252.458 77.52 253.642 77.28 254.442 76.8C255.242 76.32 255.642 75.632 255.642 74.736C255.642 74.064 255.418 73.488 254.97 73.008C254.554 72.496 253.93 72.032 253.098 71.616C252.266 71.2 250.97 70.624 249.21 69.888C246.106 68.576 243.85 67.12 242.442 65.52C241.034 63.92 240.33 61.952 240.33 59.616C240.33 57.696 240.858 55.984 241.914 54.48C243.002 52.976 244.506 51.808 246.426 50.976C248.346 50.144 250.554 49.728 253.049 49.728C255.098 49.728 256.922 49.888 258.522 50.208C260.122 50.528 261.658 51.04 263.13 51.744V59.184C260.314 57.712 257.482 56.976 254.634 56.976C253.098 56.976 251.866 57.232 250.938 57.744C250.042 58.224 249.594 58.928 249.594 59.856C249.594 60.784 250.058 61.536 250.986 62.112C251.914 62.688 253.626 63.472 256.122 64.464C258.394 65.392 260.154 66.304 261.402 67.2C262.682 68.096 263.61 69.136 264.186 70.32C264.762 71.504 265.05 73.008 265.05 74.832C265.05 77.936 263.914 80.368 261.642 82.128C259.402 83.856 256.042 84.72 251.562 84.72ZM268.426 50.448H276.922V84H268.426V50.448ZM281.223 50.448H289.623L301.959 70.416V50.448H310.455V84H302.103L289.719 63.984V84H281.223V50.448ZM332.113 84.72C328.465 84.72 325.249 84.016 322.465 82.608C319.713 81.2 317.585 79.184 316.081 76.56C314.577 73.904 313.825 70.8 313.825 67.248C313.825 63.696 314.577 60.608 316.081 57.984C317.585 55.328 319.713 53.296 322.465 51.888C325.249 50.448 328.465 49.728 332.113 49.728C334.545 49.728 336.689 49.968 338.545 50.448C340.433 50.896 342.177 51.632 343.777 52.656V60.72C342.369 59.6 340.769 58.8 338.977 58.32C337.217 57.808 335.185 57.552 332.881 57.552C330.897 57.552 329.121 57.952 327.553 58.752C326.017 59.52 324.801 60.64 323.905 62.112C323.009 63.584 322.561 65.296 322.561 67.248C322.561 70.288 323.441 72.688 325.201 74.448C326.993 76.208 329.409 77.088 332.449 77.088C334.145 77.088 335.569 76.8 336.721 76.224V70.848H331.585V64.896H344.785V81.6C341.361 83.68 337.137 84.72 332.113 84.72Z"/>
</mask>
<path d="M162.16 50.448H170.32L180.016 71.232L189.76 50.448H197.872V84H189.952V67.152L181.936 84H178.096L170.128 67.152V84H162.16V50.448ZM202.191 50.448H210.687V84H202.191V50.448ZM225.452 84.72C223.34 84.72 221.244 84.512 219.164 84.096C217.084 83.712 215.372 83.168 214.028 82.464V74.832C215.756 75.728 217.548 76.4 219.404 76.848C221.292 77.296 223.084 77.52 224.78 77.52C226.348 77.52 227.532 77.28 228.332 76.8C229.132 76.32 229.532 75.632 229.532 74.736C229.532 74.064 229.308 73.488 228.86 73.008C228.444 72.496 227.82 72.032 226.988 71.616C226.156 71.2 224.86 70.624 223.1 69.888C219.996 68.576 217.74 67.12 216.332 65.52C214.924 63.92 214.22 61.952 214.22 59.616C214.22 57.696 214.748 55.984 215.804 54.48C216.892 52.976 218.396 51.808 220.316 50.976C222.236 50.144 224.444 49.728 226.94 49.728C228.988 49.728 230.812 49.888 232.412 50.208C234.012 50.528 235.548 51.04 237.02 51.744V59.184C234.204 57.712 231.372 56.976 228.524 56.976C226.988 56.976 225.756 57.232 224.828 57.744C223.932 58.224 223.484 58.928 223.484 59.856C223.484 60.784 223.948 61.536 224.876 62.112C225.804 62.688 227.516 63.472 230.012 64.464C232.284 65.392 234.044 66.304 235.292 67.2C236.572 68.096 237.5 69.136 238.076 70.32C238.652 71.504 238.94 73.008 238.94 74.832C238.94 77.936 237.804 80.368 235.532 82.128C233.292 83.856 229.932 84.72 225.452 84.72ZM251.562 84.72C249.45 84.72 247.354 84.512 245.273 84.096C243.194 83.712 241.482 83.168 240.138 82.464V74.832C241.866 75.728 243.658 76.4 245.514 76.848C247.402 77.296 249.194 77.52 250.89 77.52C252.458 77.52 253.642 77.28 254.442 76.8C255.242 76.32 255.642 75.632 255.642 74.736C255.642 74.064 255.418 73.488 254.97 73.008C254.554 72.496 253.93 72.032 253.098 71.616C252.266 71.2 250.97 70.624 249.21 69.888C246.106 68.576 243.85 67.12 242.442 65.52C241.034 63.92 240.33 61.952 240.33 59.616C240.33 57.696 240.858 55.984 241.914 54.48C243.002 52.976 244.506 51.808 246.426 50.976C248.346 50.144 250.554 49.728 253.049 49.728C255.098 49.728 256.922 49.888 258.522 50.208C260.122 50.528 261.658 51.04 263.13 51.744V59.184C260.314 57.712 257.482 56.976 254.634 56.976C253.098 56.976 251.866 57.232 250.938 57.744C250.042 58.224 249.594 58.928 249.594 59.856C249.594 60.784 250.058 61.536 250.986 62.112C251.914 62.688 253.626 63.472 256.122 64.464C258.394 65.392 260.154 66.304 261.402 67.2C262.682 68.096 263.61 69.136 264.186 70.32C264.762 71.504 265.05 73.008 265.05 74.832C265.05 77.936 263.914 80.368 261.642 82.128C259.402 83.856 256.042 84.72 251.562 84.72ZM268.426 50.448H276.922V84H268.426V50.448ZM281.223 50.448H289.623L301.959 70.416V50.448H310.455V84H302.103L289.719 63.984V84H281.223V50.448ZM332.113 84.72C328.465 84.72 325.249 84.016 322.465 82.608C319.713 81.2 317.585 79.184 316.081 76.56C314.577 73.904 313.825 70.8 313.825 67.248C313.825 63.696 314.577 60.608 316.081 57.984C317.585 55.328 319.713 53.296 322.465 51.888C325.249 50.448 328.465 49.728 332.113 49.728C334.545 49.728 336.689 49.968 338.545 50.448C340.433 50.896 342.177 51.632 343.777 52.656V60.72C342.369 59.6 340.769 58.8 338.977 58.32C337.217 57.808 335.185 57.552 332.881 57.552C330.897 57.552 329.121 57.952 327.553 58.752C326.017 59.52 324.801 60.64 323.905 62.112C323.009 63.584 322.561 65.296 322.561 67.248C322.561 70.288 323.441 72.688 325.201 74.448C326.993 76.208 329.409 77.088 332.449 77.088C334.145 77.088 335.569 76.8 336.721 76.224V70.848H331.585V64.896H344.785V81.6C341.361 83.68 337.137 84.72 332.113 84.72Z" fill="#503A23" fill-opacity="0.1"/>
<path d="M162.16 50.448V49.448H161.16V50.448H162.16ZM170.32 50.448L171.226 50.0252L170.957 49.448H170.32V50.448ZM180.016 71.232L179.11 71.6548L180.014 73.5926L180.921 71.6565L180.016 71.232ZM189.76 50.448V49.448H189.124L188.855 50.0235L189.76 50.448ZM197.872 50.448H198.872V49.448H197.872V50.448ZM197.872 84V85H198.872V84H197.872ZM189.952 84H188.952V85H189.952V84ZM189.952 67.152H190.952L189.049 66.7224L189.952 67.152ZM181.936 84V85H182.568L182.839 84.4296L181.936 84ZM178.096 84L177.192 84.4275L177.463 85H178.096V84ZM170.128 67.152L171.032 66.7245L169.128 67.152H170.128ZM170.128 84V85H171.128V84H170.128ZM162.16 84H161.16V85H162.16V84ZM162.16 51.448H170.32V49.448H162.16V51.448ZM169.414 50.8708L179.11 71.6548L180.922 70.8092L171.226 50.0252L169.414 50.8708ZM180.921 71.6565L190.665 50.8725L188.855 50.0235L179.111 70.8075L180.921 71.6565ZM189.76 51.448H197.872V49.448H189.76V51.448ZM196.872 50.448V84H198.872V50.448H196.872ZM197.872 83H189.952V85H197.872V83ZM190.952 84V67.152H188.952V84H190.952ZM189.049 66.7224L181.033 83.5704L182.839 84.4296L190.855 67.5816L189.049 66.7224ZM181.936 83H178.096V85H181.936V83ZM179 83.5725L171.032 66.7245L169.224 67.5795L177.192 84.4275L179 83.5725ZM169.128 67.152V84H171.128V67.152H169.128ZM170.128 83H162.16V85H170.128V83ZM163.16 84V50.448H161.16V84H163.16ZM202.191 50.448V49.448H201.191V50.448H202.191ZM210.687 50.448H211.687V49.448H210.687V50.448ZM210.687 84V85H211.687V84H210.687ZM202.191 84H201.191V85H202.191V84ZM202.191 51.448H210.687V49.448H202.191V51.448ZM209.687 50.448V84H211.687V50.448H209.687ZM210.687 83H202.191V85H210.687V83ZM203.191 84V50.448H201.191V84H203.191ZM219.164 84.096L219.36 83.1154L219.353 83.114L219.346 83.1126L219.164 84.096ZM214.028 82.464H213.028V83.0691L213.564 83.3498L214.028 82.464ZM214.028 74.832L214.488 73.9442L213.028 73.187V74.832H214.028ZM219.404 76.848L219.169 77.8201L219.173 77.821L219.404 76.848ZM228.86 73.008L228.084 73.6386L228.106 73.6652L228.129 73.6903L228.86 73.008ZM223.1 69.888L222.711 70.8091L222.714 70.8106L223.1 69.888ZM216.332 65.52L217.083 64.8594L217.083 64.8594L216.332 65.52ZM215.804 54.48L214.994 53.8938L214.986 53.9054L215.804 54.48ZM220.316 50.976L220.714 51.8936L220.714 51.8936L220.316 50.976ZM232.412 50.208L232.608 49.2274L232.608 49.2274L232.412 50.208ZM237.02 51.744H238.02V51.1138L237.452 50.8419L237.02 51.744ZM237.02 59.184L236.557 60.0702L238.02 60.8351V59.184H237.02ZM224.828 57.744L225.3 58.6255L225.311 58.6196L224.828 57.744ZM224.876 62.112L225.403 61.2624L225.403 61.2624L224.876 62.112ZM230.012 64.464L230.39 63.5382L230.381 63.5347L230.012 64.464ZM235.292 67.2L234.709 68.0124L234.719 68.0192L235.292 67.2ZM238.076 70.32L238.975 69.8825L238.975 69.8825L238.076 70.32ZM235.532 82.128L236.143 82.9198L236.145 82.9185L235.532 82.128ZM225.452 83.72C223.406 83.72 221.376 83.5186 219.36 83.1154L218.968 85.0766C221.112 85.5054 223.274 85.72 225.452 85.72V83.72ZM219.346 83.1126C217.328 82.7402 215.72 82.2214 214.492 81.5782L213.564 83.3498C215.024 84.1146 216.84 84.6838 218.983 85.0794L219.346 83.1126ZM215.028 82.464V74.832H213.028V82.464H215.028ZM213.568 75.7198C215.366 76.6521 217.234 77.3528 219.169 77.8201L219.639 75.8759C217.863 75.4472 216.146 74.8039 214.488 73.9442L213.568 75.7198ZM219.173 77.821C221.126 78.2844 222.996 78.52 224.78 78.52V76.52C223.172 76.52 221.458 76.3076 219.635 75.875L219.173 77.821ZM224.78 78.52C226.42 78.52 227.819 78.2744 228.847 77.6575L227.818 75.9425C227.246 76.2856 226.276 76.52 224.78 76.52V78.52ZM228.847 77.6575C229.933 77.0059 230.532 76.0006 230.532 74.736H228.532C228.532 75.2634 228.332 75.6341 227.818 75.9425L228.847 77.6575ZM230.532 74.736C230.532 73.8173 230.216 72.9956 229.591 72.3257L228.129 73.6903C228.4 73.9804 228.532 74.3107 228.532 74.736H230.532ZM229.636 72.3774C229.102 71.7196 228.346 71.1769 227.435 70.7216L226.541 72.5104C227.294 72.8871 227.787 73.2724 228.084 73.6386L229.636 72.3774ZM227.435 70.7216C226.572 70.2897 225.25 69.7031 223.486 68.9654L222.714 70.8106C224.47 71.5449 225.741 72.1102 226.541 72.5104L227.435 70.7216ZM223.489 68.9669C220.452 67.683 218.35 66.2997 217.083 64.8594L215.581 66.1806C217.13 67.9403 219.54 69.469 222.711 70.8091L223.489 68.9669ZM217.083 64.8594C215.851 63.46 215.22 61.734 215.22 59.616H213.22C213.22 62.17 213.997 64.38 215.581 66.1806L217.083 64.8594ZM215.22 59.616C215.22 57.8919 215.69 56.3825 216.623 55.0546L214.986 53.9054C213.806 55.5855 213.22 57.5001 213.22 59.616H215.22ZM216.614 55.0661C217.584 53.7255 218.937 52.6634 220.714 51.8936L219.919 50.0584C217.855 50.9526 216.2 52.2265 214.994 53.8939L216.614 55.0661ZM220.714 51.8936C222.486 51.1254 224.555 50.728 226.94 50.728V48.728C224.333 48.728 221.986 49.1626 219.919 50.0584L220.714 51.8936ZM226.94 50.728C228.938 50.728 230.694 50.8843 232.216 51.1886L232.608 49.2274C230.93 48.8917 229.038 48.728 226.94 48.728V50.728ZM232.216 51.1886C233.735 51.4923 235.192 51.9779 236.589 52.6461L237.452 50.8419C235.905 50.102 234.29 49.5637 232.608 49.2274L232.216 51.1886ZM236.02 51.744V59.184H238.02V51.744H236.02ZM237.483 58.2978C234.541 56.7598 231.551 55.976 228.524 55.976V57.976C231.193 57.976 233.867 58.6642 236.557 60.0702L237.483 58.2978ZM228.524 55.976C226.89 55.976 225.473 56.2463 224.345 56.8684L225.311 58.6196C226.04 58.2177 227.086 57.976 228.524 57.976V55.976ZM224.356 56.8625C223.789 57.166 223.311 57.5698 222.976 58.0951C222.639 58.6252 222.484 59.2238 222.484 59.856H224.484C224.484 59.5602 224.553 59.3428 224.664 59.1689C224.777 58.9902 224.971 58.802 225.3 58.6255L224.356 56.8625ZM222.484 59.856C222.484 61.196 223.188 62.2411 224.349 62.9616L225.403 61.2624C224.708 60.8309 224.484 60.372 224.484 59.856H222.484ZM224.349 62.9616C225.361 63.5897 227.148 64.4019 229.643 65.3933L230.381 63.5347C227.884 62.5421 226.248 61.7863 225.403 61.2624L224.349 62.9616ZM229.634 65.3898C231.871 66.3035 233.551 67.1808 234.709 68.0123L235.875 66.3877C234.537 65.4272 232.697 64.4805 230.39 63.5382L229.634 65.3898ZM234.719 68.0192C235.885 68.836 236.688 69.7526 237.177 70.7575L238.975 69.8825C238.312 68.5194 237.259 67.356 235.866 66.3808L234.719 68.0192ZM237.177 70.7575C237.666 71.7631 237.94 73.1046 237.94 74.832H239.94C239.94 72.9114 239.638 71.2449 238.975 69.8825L237.177 70.7575ZM237.94 74.832C237.94 77.6553 236.926 79.7837 234.92 81.3375L236.145 82.9185C238.683 80.9523 239.94 78.2167 239.94 74.832H237.94ZM234.921 81.3362C232.932 82.8706 229.831 83.72 225.452 83.72V85.72C230.033 85.72 233.652 84.8414 236.143 82.9198L234.921 81.3362ZM245.273 84.096L245.47 83.1154L245.462 83.114L245.455 83.1126L245.273 84.096ZM240.138 82.464H239.138V83.0691L239.673 83.3498L240.138 82.464ZM240.138 74.832L240.598 73.9442L239.138 73.187V74.832H240.138ZM245.514 76.848L245.279 77.8201L245.283 77.821L245.514 76.848ZM254.97 73.008L254.193 73.6386L254.215 73.6652L254.238 73.6903L254.97 73.008ZM249.21 69.888L248.82 70.8091L248.824 70.8106L249.21 69.888ZM242.442 65.52L243.192 64.8594L243.192 64.8594L242.442 65.52ZM241.914 54.48L241.103 53.8938L241.095 53.9054L241.914 54.48ZM246.426 50.976L246.823 51.8936L246.823 51.8936L246.426 50.976ZM258.522 50.208L258.718 49.2274L258.718 49.2274L258.522 50.208ZM263.13 51.744H264.13V51.1138L263.561 50.8419L263.13 51.744ZM263.13 59.184L262.666 60.0702L264.13 60.8351V59.184H263.13ZM250.938 57.744L251.41 58.6255L251.421 58.6196L250.938 57.744ZM250.986 62.112L251.513 61.2624L251.513 61.2624L250.986 62.112ZM256.122 64.464L256.5 63.5382L256.491 63.5347L256.122 64.464ZM261.402 67.2L260.818 68.0124L260.828 68.0192L261.402 67.2ZM264.186 70.32L265.085 69.8825L265.085 69.8825L264.186 70.32ZM261.642 82.128L262.252 82.9198L262.254 82.9185L261.642 82.128ZM251.562 83.72C249.516 83.72 247.485 83.5186 245.47 83.1154L245.077 85.0766C247.222 85.5054 249.383 85.72 251.562 85.72V83.72ZM245.455 83.1126C243.438 82.7402 241.83 82.2214 240.602 81.5782L239.673 83.3498C241.133 84.1146 242.949 84.6838 245.092 85.0794L245.455 83.1126ZM241.138 82.464V74.832H239.138V82.464H241.138ZM239.677 75.7198C241.475 76.6521 243.343 77.3528 245.279 77.8201L245.748 75.8759C243.972 75.4472 242.256 74.8039 240.598 73.9442L239.677 75.7198ZM245.283 77.821C247.236 78.2844 249.106 78.52 250.89 78.52V76.52C249.281 76.52 247.567 76.3076 245.744 75.875L245.283 77.821ZM250.89 78.52C252.529 78.52 253.928 78.2744 254.956 77.6575L253.927 75.9425C253.355 76.2856 252.386 76.52 250.89 76.52V78.52ZM254.956 77.6575C256.042 77.0059 256.642 76.0006 256.642 74.736H254.642C254.642 75.2634 254.441 75.6341 253.927 75.9425L254.956 77.6575ZM256.642 74.736C256.642 73.8173 256.326 72.9956 255.701 72.3257L254.238 73.6903C254.509 73.9804 254.642 74.3107 254.642 74.736H256.642ZM255.746 72.3774C255.211 71.7196 254.455 71.1769 253.545 70.7216L252.65 72.5104C253.404 72.8871 253.896 73.2724 254.193 73.6386L255.746 72.3774ZM253.545 70.7216C252.681 70.2897 251.359 69.7031 249.595 68.9654L248.824 70.8106C250.58 71.5449 251.85 72.1102 252.65 72.5104L253.545 70.7216ZM249.599 68.9669C246.561 67.683 244.46 66.2997 243.192 64.8594L241.691 66.1806C243.239 67.9403 245.65 69.469 248.82 70.8091L249.599 68.9669ZM243.192 64.8594C241.961 63.46 241.33 61.734 241.33 59.616H239.33C239.33 62.17 240.106 64.38 241.691 66.1806L243.192 64.8594ZM241.33 59.616C241.33 57.8919 241.8 56.3825 242.732 55.0546L241.095 53.9054C239.915 55.5855 239.33 57.5001 239.33 59.616H241.33ZM242.724 55.0661C243.694 53.7255 245.046 52.6634 246.823 51.8936L246.028 50.0584C243.965 50.9526 242.309 52.2265 241.103 53.8939L242.724 55.0661ZM246.823 51.8936C248.596 51.1254 250.664 50.728 253.049 50.728V48.728C250.443 48.728 248.095 49.1626 246.028 50.0584L246.823 51.8936ZM253.049 50.728C255.048 50.728 256.804 50.8843 258.325 51.1886L258.718 49.2274C257.039 48.8917 255.147 48.728 253.049 48.728V50.728ZM258.325 51.1886C259.844 51.4923 261.301 51.9779 262.698 52.6461L263.561 50.8419C262.014 50.102 260.399 49.5637 258.718 49.2274L258.325 51.1886ZM262.13 51.744V59.184H264.13V51.744H262.13ZM263.593 58.2978C260.651 56.7598 257.661 55.976 254.634 55.976V57.976C257.302 57.976 259.976 58.6642 262.666 60.0702L263.593 58.2978ZM254.634 55.976C252.999 55.976 251.582 56.2463 250.454 56.8684L251.421 58.6196C252.149 58.2177 253.196 57.976 254.634 57.976V55.976ZM250.465 56.8625C249.899 57.166 249.42 57.5698 249.086 58.0951C248.749 58.6252 248.594 59.2238 248.594 59.856H250.594C250.594 59.5602 250.662 59.3428 250.773 59.1689C250.887 58.9902 251.08 58.802 251.41 58.6255L250.465 56.8625ZM248.594 59.856C248.594 61.196 249.297 62.2411 250.458 62.9616L251.513 61.2624C250.818 60.8309 250.594 60.372 250.594 59.856H248.594ZM250.458 62.9616C251.47 63.5897 253.258 64.4019 255.752 65.3933L256.491 63.5347C253.993 62.5421 252.357 61.7863 251.513 61.2624L250.458 62.9616ZM255.743 65.3898C257.98 66.3035 259.66 67.1808 260.818 68.0123L261.985 66.3877C260.647 65.4272 258.807 64.4805 256.5 63.5382L255.743 65.3898ZM260.828 68.0192C261.995 68.836 262.797 69.7526 263.286 70.7575L265.085 69.8825C264.422 68.5194 263.368 67.356 261.975 66.3808L260.828 68.0192ZM263.286 70.7575C263.775 71.7631 264.05 73.1046 264.05 74.832H266.05C266.05 72.9114 265.748 71.2449 265.085 69.8825L263.286 70.7575ZM264.05 74.832C264.05 77.6553 263.035 79.7837 261.029 81.3375L262.254 82.9185C264.792 80.9523 266.05 78.2167 266.05 74.832H264.05ZM261.031 81.3362C259.042 82.8706 255.941 83.72 251.562 83.72V85.72C256.142 85.72 259.761 84.8414 262.252 82.9198L261.031 81.3362ZM268.426 50.448V49.448H267.426V50.448H268.426ZM276.922 50.448H277.922V49.448H276.922V50.448ZM276.922 84V85H277.922V84H276.922ZM268.426 84H267.426V85H268.426V84ZM268.426 51.448H276.922V49.448H268.426V51.448ZM275.922 50.448V84H277.922V50.448H275.922ZM276.922 83H268.426V85H276.922V83ZM269.426 84V50.448H267.426V84H269.426ZM281.223 50.448V49.448H280.223V50.448H281.223ZM289.623 50.448L290.473 49.9224L290.18 49.448H289.623V50.448ZM301.959 70.416L301.108 70.9416L302.959 73.9373V70.416H301.959ZM301.959 50.448V49.448H300.959V50.448H301.959ZM310.455 50.448H311.455V49.448H310.455V50.448ZM310.455 84V85H311.455V84H310.455ZM302.103 84L301.252 84.5261L301.545 85H302.103V84ZM289.719 63.984L290.569 63.4579L288.719 60.4671V63.984H289.719ZM289.719 84V85H290.719V84H289.719ZM281.223 84H280.223V85H281.223V84ZM281.223 51.448H289.623V49.448H281.223V51.448ZM288.772 50.9736L301.108 70.9416L302.809 69.8904L290.473 49.9224L288.772 50.9736ZM302.959 70.416V50.448H300.959V70.416H302.959ZM301.959 51.448H310.455V49.448H301.959V51.448ZM309.455 50.448V84H311.455V50.448H309.455ZM310.455 83H302.103V85H310.455V83ZM302.953 83.4739L290.569 63.4579L288.868 64.5101L301.252 84.5261L302.953 83.4739ZM288.719 63.984V84H290.719V63.984H288.719ZM289.719 83H281.223V85H289.719V83ZM282.223 84V50.448H280.223V84H282.223ZM322.465 82.608L322.01 83.4983L322.014 83.5004L322.465 82.608ZM316.081 76.56L315.211 77.0528L315.213 77.0573L316.081 76.56ZM316.081 57.984L316.949 58.4813L316.951 58.4767L316.081 57.984ZM322.465 51.888L322.92 52.7783L322.924 52.7762L322.465 51.888ZM338.545 50.448L338.295 51.4161L338.304 51.4187L338.314 51.421L338.545 50.448ZM343.777 52.656H344.777V52.1087L344.316 51.8137L343.777 52.656ZM343.777 60.72L343.154 61.5026L344.777 62.7932V60.72H343.777ZM338.977 58.32L338.698 59.2802L338.708 59.2832L338.718 59.2859L338.977 58.32ZM327.553 58.752L328 59.6465L328.007 59.6428L327.553 58.752ZM325.201 74.448L324.494 75.1551L324.5 75.1614L325.201 74.448ZM336.721 76.224L337.168 77.1184L337.721 76.842V76.224H336.721ZM336.721 70.848H337.721V69.848H336.721V70.848ZM331.585 70.848H330.585V71.848H331.585V70.848ZM331.585 64.896V63.896H330.585V64.896H331.585ZM344.785 64.896H345.785V63.896H344.785V64.896ZM344.785 81.6L345.304 82.4547L345.785 82.1626V81.6H344.785ZM332.113 83.72C328.595 83.72 325.539 83.0418 322.916 81.7156L322.014 83.5004C324.959 84.9902 328.335 85.72 332.113 85.72V83.72ZM322.92 81.7178C320.337 80.396 318.354 78.5147 316.949 76.0627L315.213 77.0573C316.816 79.8533 319.089 82.004 322.01 83.4982L322.92 81.7178ZM316.951 76.0673C315.545 73.5845 314.825 70.6558 314.825 67.248H312.825C312.825 70.9442 313.609 74.2235 315.211 77.0527L316.951 76.0673ZM314.825 67.248C314.825 63.8398 315.545 60.9294 316.949 58.4813L315.213 57.4867C313.609 60.2866 312.825 63.5522 312.825 67.248H314.825ZM316.951 58.4767C318.357 55.9933 320.34 54.0984 322.92 52.7782L322.01 50.9978C319.086 52.4936 316.813 54.6627 315.211 57.4912L316.951 58.4767ZM322.924 52.7762C325.545 51.4208 328.599 50.728 332.113 50.728V48.728C328.331 48.728 324.953 49.4752 322.006 50.9998L322.924 52.7762ZM332.113 50.728C334.482 50.728 336.539 50.9621 338.295 51.4161L338.795 49.4799C336.839 48.9739 334.608 48.728 332.113 48.728V50.728ZM338.314 51.421C340.095 51.8436 341.735 52.5362 343.238 53.4983L344.316 51.8137C342.619 50.7278 340.771 49.9484 338.776 49.475L338.314 51.421ZM342.777 52.656V60.72H344.777V52.656H342.777ZM344.4 59.9374C342.881 58.7293 341.156 57.8684 339.236 57.3541L338.718 59.2859C340.382 59.7316 341.857 60.4707 343.154 61.5026L344.4 59.9374ZM339.256 57.3598C337.386 56.8156 335.256 56.552 332.881 56.552V58.552C335.114 58.552 337.048 58.8004 338.698 59.2802L339.256 57.3598ZM332.881 56.552C330.759 56.552 328.824 56.9808 327.099 57.8612L328.007 59.6428C329.418 58.9232 331.035 58.552 332.881 58.552V56.552ZM327.106 57.8576C325.401 58.71 324.044 59.96 323.051 61.5921L324.759 62.6319C325.558 61.32 326.633 60.33 328 59.6464L327.106 57.8576ZM323.051 61.5921C322.047 63.2407 321.561 65.1375 321.561 67.248H323.561C323.561 65.4545 323.971 63.9273 324.759 62.6319L323.051 61.5921ZM321.561 67.248C321.561 70.4907 322.506 73.1676 324.494 75.1551L325.908 73.7409C324.376 72.2084 323.561 70.0853 323.561 67.248H321.561ZM324.5 75.1614C326.517 77.1425 329.206 78.088 332.449 78.088V76.088C329.612 76.088 327.469 75.2735 325.902 73.7346L324.5 75.1614ZM332.449 78.088C334.253 78.088 335.841 77.7823 337.168 77.1184L336.274 75.3296C335.297 75.8177 334.037 76.088 332.449 76.088V78.088ZM337.721 76.224V70.848H335.721V76.224H337.721ZM336.721 69.848H331.585V71.848H336.721V69.848ZM332.585 70.848V64.896H330.585V70.848H332.585ZM331.585 65.896H344.785V63.896H331.585V65.896ZM343.785 64.896V81.6H345.785V64.896H343.785ZM344.266 80.7453C341.034 82.7089 337 83.72 332.113 83.72V85.72C337.274 85.72 341.688 84.6511 345.304 82.4547L344.266 80.7453Z" fill="#503A23" fill-opacity="0.1" mask="url(#path-2-outside-1_189_235)"/>
<path d="M114.976 140.021C117.273 142.107 118.324 145.249 116.897 147.721C115.316 150.459 112.257 152.14 109.049 150.288C97.8283 143.81 66.8975 122.403 64.9877 121.3C62.6004 119.922 58.6763 121.205 55.7785 121.814C54.2749 122.129 51.7062 122.251 48.1253 120.184C44.5443 118.116 21.8978 102.76 21.8978 102.76C21.2612 102.392 20.0977 101.467 20.5368 100.706C20.9759 99.9458 22.1503 100.117 23.1052 100.668L47.4559 114.727C48.1593 114.795 49.6759 114.741 50.1149 113.981C50.554 113.22 49.8424 111.88 49.4317 111.305L24.6942 96.2621C24.4061 95.8422 23.5006 95.5729 24.2689 94.242C24.9276 93.1013 25.6502 93.6875 26.1212 93.7904L51.5174 107.692C52.2208 107.76 53.5178 108.087 54.1764 106.946C54.6155 106.186 53.8307 104.972 53.3835 104.46L28.3166 89.9879C27.9919 89.6314 27.4084 88.8044 27.6718 88.3481C28.3532 87.1679 29.3755 87.5648 29.4261 87.5838C29.4056 87.5737 29.3951 87.5685 29.3951 87.5685C29.4231 87.5825 29.4325 87.5862 29.4261 87.5838C30.4522 88.0904 56.6809 101.04 58.5534 102.122C60.4633 103.224 62.7795 105.471 63.6819 108.125C64.8618 111.594 65.2749 114.187 67.9515 116.167C69.5128 117.322 112.327 137.614 114.976 140.021Z" fill="#503A23" fill-opacity="0.1"/>
<path d="M116.897 147.721C118.324 145.249 117.273 142.107 114.976 140.021C112.327 137.614 69.5128 117.322 67.9515 116.167C65.2749 114.187 64.8618 111.594 63.6819 108.125C62.7795 105.471 60.4633 103.224 58.5534 102.122C56.6435 101.019 29.3951 87.5685 29.3951 87.5685C29.6422 87.6919 28.4402 87.0172 27.6718 88.3481C27.4084 88.8044 27.9919 89.6314 28.3166 89.9879L53.3835 104.46C53.8307 104.972 54.6155 106.186 54.1764 106.946C53.5178 108.087 52.2208 107.76 51.5174 107.692L26.1212 93.7904C25.6502 93.6875 24.9276 93.1013 24.2689 94.242C23.5006 95.5729 24.4061 95.8422 24.6942 96.2621L49.4317 111.305C49.8424 111.88 50.554 113.22 50.1149 113.981C49.6759 114.741 48.1593 114.795 47.4559 114.727L23.1052 100.668C22.1503 100.117 20.9759 99.9458 20.5368 100.706C20.0977 101.467 21.2612 102.392 21.8978 102.76C21.8978 102.76 44.5443 118.116 48.1253 120.184C51.7062 122.251 54.2749 122.129 55.7785 121.814C58.6763 121.205 62.6004 119.922 64.9877 121.3C66.8975 122.403 97.8283 143.81 109.049 150.288C112.257 152.14 115.316 150.459 116.897 147.721Z" stroke="#503A23" stroke-opacity="0.1"/>
<path d="M100.247 123.867C96.4279 124.653 70.4731 142.832 57.5033 151.587C54.4202 152.607 48.9919 153.612 47.0599 150.265C45.0841 146.843 49.0459 142.528 51.3562 140.94C65.6478 133.703 93.8092 120.233 96.5148 117.403C98.0689 115.778 100.954 110.446 101.812 107.5C102.823 105.396 106.596 100.175 113.606 96.128C122.368 91.0692 140.133 87.1501 144.524 94.7552C148.914 102.36 133.225 116.235 127.217 119.704C122.704 122.309 115.543 124.923 111.692 124.611C107.84 124.3 105.021 122.886 100.247 123.867Z" fill="#503A23" fill-opacity="0.1" stroke="#503A23" stroke-opacity="0.1"/>
<rect x="58.4766" y="74.4953" width="48.1121" height="20.3551" rx="6" fill="#503A23" fill-opacity="0.1"/>
<rect x="58.9766" y="74.9953" width="47.1121" height="19.3551" rx="5.5" stroke="#503A23" stroke-opacity="0.1"/>
<path d="M72.5884 71.4112H58.6662C58.6662 67.995 43.673 52.0007 43.673 38.0252C43.673 31.1927 52.0876 27 56.5243 27C63.4089 27 70.4408 38.2983 81.1559 40.1991C88.5186 41.5053 93.2422 42.0625 100.433 39.7333C101.082 39.5231 101.483 38.7731 101.351 38.0252C101.199 37.1643 100.365 36.6431 99.5149 36.7829C83.4508 39.4227 75.3422 33.6772 75.3422 33.6772C75.3422 33.6772 80.2311 34.5083 83.4508 34.2983C93.8522 33.6201 98.7305 27 109.153 27C116.191 27 121.393 32.5618 121.393 39.4227C121.393 50.9137 111.142 61.9389 106.094 71.4112H90.3354L93.0893 61.0072C93.0893 61.0072 92.6815 58.6322 91.5593 58.5226C90.5466 58.4238 89.5704 60.2308 89.5704 60.2308L86.6636 71.4112H76.1072L70.5995 49.3609C70.5995 49.3609 69.4755 47.1289 68.3046 47.4975C67.3845 47.7871 67.0807 49.3609 67.0807 49.3609L72.5884 71.4112Z" fill="#503A23" fill-opacity="0.1" stroke="#503A23" stroke-opacity="0.1"/>
<mask id="path-10-outside-2_189_235" maskUnits="userSpaceOnUse" x="180" y="101" width="147" height="38" fill="black">
<rect fill="white" x="180" y="101" width="147" height="38"/>
<path d="M181.59 103.448H190.086V137H181.59V103.448ZM194.387 103.448H202.547L212.243 124.232L221.987 103.448H230.099V137H222.179V120.152L214.163 137H210.323L202.355 120.152V137H194.387V103.448ZM245.679 103.448H254.031L267.423 137H258.735L256.047 130.088H243.663L240.975 137H232.239L245.679 103.448ZM253.935 123.56L249.855 112.28L245.727 123.56H253.935ZM285.496 137.72C281.848 137.72 278.632 137.016 275.848 135.608C273.096 134.2 270.968 132.184 269.464 129.56C267.96 126.904 267.208 123.8 267.208 120.248C267.208 116.696 267.96 113.608 269.464 110.984C270.968 108.328 273.096 106.296 275.848 104.888C278.632 103.448 281.848 102.728 285.496 102.728C287.928 102.728 290.072 102.968 291.928 103.448C293.816 103.896 295.56 104.632 297.16 105.656V113.72C295.752 112.6 294.152 111.8 292.36 111.32C290.6 110.808 288.568 110.552 286.264 110.552C284.28 110.552 282.504 110.952 280.936 111.752C279.4 112.52 278.184 113.64 277.288 115.112C276.392 116.584 275.944 118.296 275.944 120.248C275.944 123.288 276.824 125.688 278.584 127.448C280.376 129.208 282.792 130.088 285.832 130.088C287.528 130.088 288.952 129.8 290.104 129.224V123.848H284.968V117.896H298.168V134.6C294.744 136.68 290.52 137.72 285.496 137.72ZM301.543 103.448H325.351V110.6H310.039V116.888H321.223V123.56H310.039V129.848H325.351V137H301.543V103.448Z"/>
</mask>
<path d="M181.59 103.448H190.086V137H181.59V103.448ZM194.387 103.448H202.547L212.243 124.232L221.987 103.448H230.099V137H222.179V120.152L214.163 137H210.323L202.355 120.152V137H194.387V103.448ZM245.679 103.448H254.031L267.423 137H258.735L256.047 130.088H243.663L240.975 137H232.239L245.679 103.448ZM253.935 123.56L249.855 112.28L245.727 123.56H253.935ZM285.496 137.72C281.848 137.72 278.632 137.016 275.848 135.608C273.096 134.2 270.968 132.184 269.464 129.56C267.96 126.904 267.208 123.8 267.208 120.248C267.208 116.696 267.96 113.608 269.464 110.984C270.968 108.328 273.096 106.296 275.848 104.888C278.632 103.448 281.848 102.728 285.496 102.728C287.928 102.728 290.072 102.968 291.928 103.448C293.816 103.896 295.56 104.632 297.16 105.656V113.72C295.752 112.6 294.152 111.8 292.36 111.32C290.6 110.808 288.568 110.552 286.264 110.552C284.28 110.552 282.504 110.952 280.936 111.752C279.4 112.52 278.184 113.64 277.288 115.112C276.392 116.584 275.944 118.296 275.944 120.248C275.944 123.288 276.824 125.688 278.584 127.448C280.376 129.208 282.792 130.088 285.832 130.088C287.528 130.088 288.952 129.8 290.104 129.224V123.848H284.968V117.896H298.168V134.6C294.744 136.68 290.52 137.72 285.496 137.72ZM301.543 103.448H325.351V110.6H310.039V116.888H321.223V123.56H310.039V129.848H325.351V137H301.543V103.448Z" fill="#503A23" fill-opacity="0.1"/>
<path d="M181.59 103.448V102.448H180.59V103.448H181.59ZM190.086 103.448H191.086V102.448H190.086V103.448ZM190.086 137V138H191.086V137H190.086ZM181.59 137H180.59V138H181.59V137ZM181.59 104.448H190.086V102.448H181.59V104.448ZM189.086 103.448V137H191.086V103.448H189.086ZM190.086 136H181.59V138H190.086V136ZM182.59 137V103.448H180.59V137H182.59ZM194.387 103.448V102.448H193.387V103.448H194.387ZM202.547 103.448L203.453 103.025L203.184 102.448H202.547V103.448ZM212.243 124.232L211.336 124.655L212.24 126.593L213.148 124.656L212.243 124.232ZM221.987 103.448V102.448H221.351L221.081 103.024L221.987 103.448ZM230.099 103.448H231.099V102.448H230.099V103.448ZM230.099 137V138H231.099V137H230.099ZM222.179 137H221.179V138H222.179V137ZM222.179 120.152H223.179L221.276 119.722L222.179 120.152ZM214.163 137V138H214.794L215.066 137.43L214.163 137ZM210.323 137L209.419 137.428L209.689 138H210.323V137ZM202.355 120.152L203.259 119.724L201.355 120.152H202.355ZM202.355 137V138H203.355V137H202.355ZM194.387 137H193.387V138H194.387V137ZM194.387 104.448H202.547V102.448H194.387V104.448ZM201.64 103.871L211.336 124.655L213.149 123.809L203.453 103.025L201.64 103.871ZM213.148 124.656L222.892 103.872L221.081 103.024L211.337 123.808L213.148 124.656ZM221.987 104.448H230.099V102.448H221.987V104.448ZM229.099 103.448V137H231.099V103.448H229.099ZM230.099 136H222.179V138H230.099V136ZM223.179 137V120.152H221.179V137H223.179ZM221.276 119.722L213.26 136.57L215.066 137.43L223.082 120.582L221.276 119.722ZM214.163 136H210.323V138H214.163V136ZM211.227 136.572L203.259 119.724L201.451 120.58L209.419 137.428L211.227 136.572ZM201.355 120.152V137H203.355V120.152H201.355ZM202.355 136H194.387V138H202.355V136ZM195.387 137V103.448H193.387V137H195.387ZM245.679 103.448V102.448H245.002L244.751 103.076L245.679 103.448ZM254.031 103.448L254.96 103.077L254.709 102.448H254.031V103.448ZM267.423 137V138H268.899L268.352 136.629L267.423 137ZM258.735 137L257.803 137.362L258.051 138H258.735V137ZM256.047 130.088L256.979 129.726L256.731 129.088H256.047V130.088ZM243.663 130.088V129.088H242.979L242.731 129.726L243.663 130.088ZM240.975 137V138H241.659L241.907 137.362L240.975 137ZM232.239 137L231.311 136.628L230.761 138H232.239V137ZM253.935 123.56V124.56H255.36L254.875 123.22L253.935 123.56ZM249.855 112.28L250.795 111.94L249.861 109.355L248.916 111.936L249.855 112.28ZM245.727 123.56L244.788 123.216L244.296 124.56H245.727V123.56ZM245.679 104.448H254.031V102.448H245.679V104.448ZM253.102 103.819L266.494 137.371L268.352 136.629L254.96 103.077L253.102 103.819ZM267.423 136H258.735V138H267.423V136ZM259.667 136.638L256.979 129.726L255.115 130.45L257.803 137.362L259.667 136.638ZM256.047 129.088H243.663V131.088H256.047V129.088ZM242.731 129.726L240.043 136.638L241.907 137.362L244.595 130.45L242.731 129.726ZM240.975 136H232.239V138H240.975V136ZM233.167 137.372L246.607 103.82L244.751 103.076L231.311 136.628L233.167 137.372ZM254.875 123.22L250.795 111.94L248.915 112.62L252.995 123.9L254.875 123.22ZM248.916 111.936L244.788 123.216L246.666 123.904L250.794 112.624L248.916 111.936ZM245.727 124.56H253.935V122.56H245.727V124.56ZM275.848 135.608L275.392 136.498L275.397 136.5L275.848 135.608ZM269.464 129.56L268.594 130.053L268.596 130.057L269.464 129.56ZM269.464 110.984L270.331 111.481L270.334 111.477L269.464 110.984ZM275.848 104.888L276.303 105.778L276.307 105.776L275.848 104.888ZM291.928 103.448L291.677 104.416L291.687 104.419L291.697 104.421L291.928 103.448ZM297.16 105.656H298.16V105.109L297.699 104.814L297.16 105.656ZM297.16 113.72L296.537 114.503L298.16 115.793V113.72H297.16ZM292.36 111.32L292.08 112.28L292.091 112.283L292.101 112.286L292.36 111.32ZM280.936 111.752L281.383 112.646L281.39 112.643L280.936 111.752ZM278.584 127.448L277.877 128.155L277.883 128.161L278.584 127.448ZM290.104 129.224L290.551 130.118L291.104 129.842V129.224H290.104ZM290.104 123.848H291.104V122.848H290.104V123.848ZM284.968 123.848H283.968V124.848H284.968V123.848ZM284.968 117.896V116.896H283.968V117.896H284.968ZM298.168 117.896H299.168V116.896H298.168V117.896ZM298.168 134.6L298.687 135.455L299.168 135.163V134.6H298.168ZM285.496 136.72C281.978 136.72 278.921 136.042 276.299 134.716L275.397 136.5C278.342 137.99 281.718 138.72 285.496 138.72V136.72ZM276.303 134.718C273.72 133.396 271.737 131.515 270.331 129.063L268.596 130.057C270.199 132.853 272.472 135.004 275.392 136.498L276.303 134.718ZM270.334 129.067C268.928 126.585 268.208 123.656 268.208 120.248H266.208C266.208 123.944 266.992 127.223 268.594 130.053L270.334 129.067ZM268.208 120.248C268.208 116.84 268.928 113.929 270.331 111.481L268.596 110.487C266.991 113.287 266.208 116.552 266.208 120.248H268.208ZM270.334 111.477C271.74 108.993 273.723 107.098 276.303 105.778L275.392 103.998C272.469 105.494 270.195 107.663 268.594 110.491L270.334 111.477ZM276.307 105.776C278.928 104.421 281.981 103.728 285.496 103.728V101.728C281.714 101.728 278.336 102.475 275.388 104L276.307 105.776ZM285.496 103.728C287.865 103.728 289.922 103.962 291.677 104.416L292.178 102.48C290.222 101.974 287.991 101.728 285.496 101.728V103.728ZM291.697 104.421C293.478 104.844 295.117 105.536 296.621 106.498L297.699 104.814C296.002 103.728 294.154 102.948 292.159 102.475L291.697 104.421ZM296.16 105.656V113.72H298.16V105.656H296.16ZM297.782 112.937C296.264 111.729 294.539 110.868 292.619 110.354L292.101 112.286C293.765 112.732 295.24 113.471 296.537 114.503L297.782 112.937ZM292.639 110.36C290.769 109.816 288.639 109.552 286.264 109.552V111.552C288.496 111.552 290.431 111.8 292.08 112.28L292.639 110.36ZM286.264 109.552C284.142 109.552 282.207 109.981 280.481 110.861L281.39 112.643C282.801 111.923 284.418 111.552 286.264 111.552V109.552ZM280.489 110.858C278.784 111.71 277.427 112.96 276.434 114.592L278.142 115.632C278.941 114.32 280.016 113.33 281.383 112.646L280.489 110.858ZM276.434 114.592C275.43 116.241 274.944 118.138 274.944 120.248H276.944C276.944 118.454 277.354 116.927 278.142 115.632L276.434 114.592ZM274.944 120.248C274.944 123.491 275.889 126.168 277.877 128.155L279.291 126.741C277.758 125.208 276.944 123.085 276.944 120.248H274.944ZM277.883 128.161C279.9 130.142 282.588 131.088 285.832 131.088V129.088C282.995 129.088 280.851 128.274 279.285 126.735L277.883 128.161ZM285.832 131.088C287.636 131.088 289.223 130.782 290.551 130.118L289.657 128.33C288.68 128.818 287.42 129.088 285.832 129.088V131.088ZM291.104 129.224V123.848H289.104V129.224H291.104ZM290.104 122.848H284.968V124.848H290.104V122.848ZM285.968 123.848V117.896H283.968V123.848H285.968ZM284.968 118.896H298.168V116.896H284.968V118.896ZM297.168 117.896V134.6H299.168V117.896H297.168ZM297.649 133.745C294.416 135.709 290.383 136.72 285.496 136.72V138.72C290.657 138.72 295.071 137.651 298.687 135.455L297.649 133.745ZM301.543 103.448V102.448H300.543V103.448H301.543ZM325.351 103.448H326.351V102.448H325.351V103.448ZM325.351 110.6V111.6H326.351V110.6H325.351ZM310.039 110.6V109.6H309.039V110.6H310.039ZM310.039 116.888H309.039V117.888H310.039V116.888ZM321.223 116.888H322.223V115.888H321.223V116.888ZM321.223 123.56V124.56H322.223V123.56H321.223ZM310.039 123.56V122.56H309.039V123.56H310.039ZM310.039 129.848H309.039V130.848H310.039V129.848ZM325.351 129.848H326.351V128.848H325.351V129.848ZM325.351 137V138H326.351V137H325.351ZM301.543 137H300.543V138H301.543V137ZM301.543 104.448H325.351V102.448H301.543V104.448ZM324.351 103.448V110.6H326.351V103.448H324.351ZM325.351 109.6H310.039V111.6H325.351V109.6ZM309.039 110.6V116.888H311.039V110.6H309.039ZM310.039 117.888H321.223V115.888H310.039V117.888ZM320.223 116.888V123.56H322.223V116.888H320.223ZM321.223 122.56H310.039V124.56H321.223V122.56ZM309.039 123.56V129.848H311.039V123.56H309.039ZM310.039 130.848H325.351V128.848H310.039V130.848ZM324.351 129.848V137H326.351V129.848H324.351ZM325.351 136H301.543V138H325.351V136ZM302.543 137V103.448H300.543V137H302.543Z" fill="#503A23" fill-opacity="0.1" mask="url(#path-10-outside-2_189_235)"/>
</svg>
