<svg width="36" height="36" viewBox="0 0 36 36" fill="none" xmlns="http://www.w3.org/2000/svg">
<rect x="1" y="1" width="34" height="34" rx="9" stroke="#452E17" stroke-width="2"/>
<path d="M21 21C22.1 21 23 21.9 23 23H27C27.6 23 28 23.4 28 24C28 24.6 27.6 25 27 25H23C23 26.1 22.1 27 21 27C19.9 27 19 26.1 19 25H9C8.4 25 8 24.6 8 24C8 23.4 8.4 23 9 23H19C19 21.9 19.9 21 21 21ZM13 15C14.05 15 14.9178 15.82 14.9945 16.8513L15 17H27C27.6 17 28 17.4 28 18C28 18.5571 27.6551 18.9418 27.1254 18.994L27 19H15C15 20.1 14.1 21 13 21C11.95 21 11.0822 20.18 11.0055 19.1487L11 19H9C8.4 19 8 18.6 8 18C8 17.4429 8.3449 17.0582 8.87456 17.006L9 17H11C11 15.9 11.9 15 13 15ZM22 9C23.05 9 23.9178 9.82004 23.9945 10.8513L24 11H27C27.6 11 28 11.4 28 12C28 12.5571 27.6551 12.9418 27.1254 12.994L27 13H24C24 14.1 23.1 15 22 15C20.95 15 20.0822 14.18 20.0055 13.1487L20 13H9C8.4 13 8 12.6 8 12C8 11.4429 8.3449 11.0582 8.87456 11.006L9 11H20C20 9.9 20.9 9 22 9Z" fill="#452E17"/>
</svg>
