<svg width="220" height="198" viewBox="0 0 220 198" fill="none" xmlns="http://www.w3.org/2000/svg">
<path d="M195.857 86.369C220.076 62.1607 227.276 30.0855 211.943 14.731C196.605 -0.590974 164.519 6.59831 140.305 30.8174C119.502 51.6262 111.277 78.2038 119.073 95.0222L115.831 98.2753L91.6227 74.067C98.8396 66.8556 101.744 60.948 102.852 56.8725C103.933 52.8987 101.777 49.1373 98.8644 46.2257L61.1078 8.48125C56.4218 3.79675 48.8259 3.79677 44.1399 8.4813L8.4879 44.1223C3.80037 48.8084 3.79979 56.4074 8.48659 61.0942L45.2159 97.8234C48.7773 101.385 53.5287 103.785 58.2961 102.16C62.3945 100.763 67.8799 97.8019 74.0724 91.6119L98.2915 115.809L93.1029 121.009L87.692 115.609L41.2829 162C34.8255 168.455 34.8215 178.922 41.2739 185.382V185.382C47.7301 191.846 58.2045 191.85 64.6654 185.391L111.076 138.993L105.654 133.582L110.87 128.393L120.852 138.369L117.447 141.769L158.984 183.314C165.711 190.043 176.62 190.042 183.346 183.313V183.313C190.07 176.586 190.069 165.682 183.343 158.957L141.796 117.414L138.396 120.835L128.393 110.848L131.668 107.595C148.465 115.403 175.053 107.189 195.857 86.369ZM204.243 46.0326C205.801 47.5953 205.799 50.1251 204.239 51.6856L159.21 96.7089C157.65 98.2693 155.12 98.271 153.558 96.7127L153.362 96.5173C151.796 94.9557 151.794 92.4196 153.358 90.8561L198.392 45.837C199.955 44.2738 202.491 44.2758 204.052 45.8414L204.243 46.0326ZM192.535 34.3218C194.1 35.8834 194.101 38.418 192.538 39.9811L147.514 85.0098C145.95 86.5741 143.413 86.5718 141.852 85.0047L141.655 84.8072C140.097 83.2437 140.1 80.714 141.662 79.1542L186.709 34.1502C188.27 32.5904 190.8 32.5898 192.362 34.1489L192.535 34.3218ZM174.999 22.4394C176.562 20.8772 179.095 20.878 180.657 22.4412L180.843 22.6275C182.404 24.1895 182.403 26.7207 180.842 28.2824L135.827 73.3167C134.264 74.8804 131.729 74.8795 130.167 73.3147L129.965 73.1115C128.405 71.5488 128.406 69.0178 129.968 67.4568L174.999 22.4394Z" fill="#503A23"/>
</svg>
