<svg width="256" height="256" viewBox="0 0 256 256" fill="none" xmlns="http://www.w3.org/2000/svg">
<rect width="256" height="256" rx="48" fill="#F8EED9"/>
<path d="M213.857 115.369C238.076 91.1607 245.276 59.0855 229.943 43.731C214.605 28.409 182.519 35.5983 158.305 59.8174C137.502 80.6262 129.277 107.204 137.073 124.022L133.831 127.275L109.623 103.067C116.84 95.8556 119.744 89.948 120.852 85.8725C121.933 81.8987 119.777 78.1373 116.864 75.2257L79.1078 37.4812C74.4218 32.7968 66.8259 32.7968 62.1399 37.4813L26.4879 73.1223C21.8004 77.8084 21.7998 85.4074 26.4866 90.0942L63.2159 126.823C66.7773 130.385 71.5287 132.785 76.2961 131.16C80.3945 129.763 85.8799 126.802 92.0724 120.612L116.292 144.809L111.103 150.009L105.692 144.609L59.2829 191C52.8255 197.455 52.8215 207.922 59.2739 214.382V214.382C65.7301 220.846 76.2045 220.85 82.6654 214.391L129.076 167.993L123.654 162.582L128.87 157.393L138.852 167.369L135.447 170.769L176.984 212.314C183.711 219.043 194.62 219.042 201.346 212.313V212.313C208.07 205.586 208.069 194.682 201.343 187.957L159.796 146.414L156.396 149.835L146.393 139.848L149.668 136.595C166.465 144.403 193.053 136.189 213.857 115.369ZM222.243 75.0326C223.801 76.5953 223.799 79.1251 222.239 80.6856L177.21 125.709C175.65 127.269 173.12 127.271 171.558 125.713L171.362 125.517C169.796 123.956 169.794 121.42 171.358 119.856L216.392 74.837C217.955 73.2738 220.491 73.2758 222.052 74.8414L222.243 75.0326ZM210.535 63.3218C212.1 64.8834 212.101 67.418 210.538 68.9811L165.514 114.01C163.95 115.574 161.413 115.572 159.852 114.005L159.655 113.807C158.097 112.244 158.1 109.714 159.662 108.154L204.709 63.1502C206.27 61.5904 208.8 61.5898 210.362 63.1489L210.535 63.3218ZM192.999 51.4394C194.562 49.8772 197.095 49.878 198.657 51.4412L198.843 51.6275C200.404 53.1895 200.403 55.7207 198.842 57.2824L153.827 102.317C152.264 103.88 149.729 103.879 148.167 102.315L147.965 102.111C146.405 100.549 146.406 98.0178 147.968 96.4568L192.999 51.4394Z" fill="#503A23"/>
</svg>
