<svg width="466" height="448" viewBox="0 0 466 448" fill="none" xmlns="http://www.w3.org/2000/svg">
<path d="M338.825 362.256C346.933 370.376 350.643 382.603 345.606 392.222C340.025 402.877 329.224 409.42 317.899 402.212C278.288 377.001 169.093 293.691 162.35 289.4C153.923 284.036 140.069 289.031 129.839 291.399C124.531 292.628 115.463 293.101 102.821 285.055C90.1791 277.009 10.23 217.246 10.23 217.246C7.98259 215.815 3.8752 212.215 5.42529 209.255C6.97537 206.295 11.1216 206.961 14.4928 209.107L100.458 263.82C102.941 264.085 108.295 263.875 109.845 260.915C111.395 257.956 108.883 252.739 107.433 250.501L20.1023 191.959C19.0852 190.325 15.8883 189.277 18.601 184.098C20.9261 179.658 23.4771 181.939 25.1401 182.34L114.796 236.443C117.279 236.708 121.858 237.978 124.183 233.538C125.733 230.579 122.963 225.856 121.384 223.864L32.8905 167.542C31.7442 166.154 29.6841 162.936 30.6141 161.16C33.0198 156.567 36.6294 158.112 36.8072 158.186C36.7348 158.146 36.6979 158.126 36.6979 158.126C36.7967 158.181 36.8299 158.195 36.8072 158.186C40.4305 160.158 133.025 210.555 139.635 214.763C146.378 219.054 154.555 227.797 157.741 238.125C161.906 251.628 163.364 261.717 172.814 269.422C178.326 273.917 329.472 352.889 338.825 362.256Z" fill="#503A23"/>
<path d="M345.606 392.222C350.643 382.603 346.933 370.376 338.825 362.256C329.472 352.889 178.326 273.917 172.814 269.422C163.364 261.717 161.906 251.628 157.741 238.125C154.555 227.797 146.378 219.054 139.635 214.763C132.893 210.471 36.6979 158.126 36.6979 158.126C37.5703 158.606 33.3268 155.981 30.6141 161.16C29.6841 162.936 31.7442 166.154 32.8905 167.542L121.384 223.864C122.963 225.856 125.733 230.579 124.183 233.538C121.858 237.978 117.279 236.708 114.796 236.443L25.1401 182.34C23.4771 181.939 20.9261 179.658 18.601 184.098C15.8883 189.277 19.0852 190.325 20.1023 191.959L107.433 250.501C108.883 252.739 111.395 257.956 109.845 260.915C108.295 263.875 102.941 264.085 100.458 263.82L14.4928 209.107C11.1216 206.961 6.97537 206.295 5.42529 209.255C3.8752 212.215 7.98259 215.815 10.23 217.246C10.23 217.246 90.1791 277.009 102.821 285.055C115.463 293.101 124.531 292.628 129.839 291.399C140.069 289.031 153.923 284.036 162.35 289.4C169.093 293.691 278.288 377.001 317.899 402.212C329.224 409.42 340.025 402.877 345.606 392.222Z" stroke="#503A23"/>
<path d="M286.827 299.391C273.344 302.448 181.716 373.196 135.928 407.27C125.044 411.238 105.881 415.148 99.0601 402.125C92.0847 388.806 106.071 372.012 114.227 365.835C164.681 337.669 264.099 285.246 273.651 274.234C279.137 267.909 289.323 247.159 292.353 235.694C295.92 227.504 309.24 207.187 333.987 191.437C364.92 171.75 427.635 156.498 443.136 186.095C458.637 215.692 403.25 269.688 382.039 283.188C366.106 293.328 340.827 303.498 327.23 302.286C313.633 301.075 303.68 295.571 286.827 299.391Z" fill="#503A23" stroke="#503A23"/>
<g filter="url(#filter0_i_149_1214)">
<path d="M172.101 151.16L88.4404 253.492C54.2737 295.283 84.0083 358 137.989 358H305.162C359.117 358 388.86 295.336 354.746 253.535L271.233 151.203C245.639 119.841 197.723 119.821 172.101 151.16Z" fill="#F8EED9"/>
</g>
<path d="M90.763 255.39L174.424 153.059C198.844 123.188 244.514 123.208 268.909 153.1L352.422 255.431C384.937 295.273 356.588 355 305.162 355H137.989C86.5387 355 58.1978 295.223 90.763 255.39Z" stroke="#503A23" stroke-width="6"/>
<path d="M146.941 254C146.77 254 146.685 253.893 146.685 253.68L146.813 209.712C146.813 209.541 146.898 209.456 147.069 209.456H159.357C161.789 209.456 163.965 210.053 165.885 211.248C167.805 212.4 169.32 213.936 170.429 215.856C171.538 217.776 172.093 219.867 172.093 222.128C172.093 223.963 171.666 225.669 170.813 227.248C170.002 228.827 169.021 230.107 167.869 231.088C169.106 232.325 170.066 233.755 170.749 235.376C171.432 236.997 171.773 238.704 171.773 240.496C171.773 242.971 171.176 245.232 169.981 247.28C168.786 249.328 167.165 250.971 165.117 252.208C163.112 253.403 160.872 254 158.397 254H146.941ZM154.493 227.12H159.357C160.85 227.12 162.045 226.608 162.941 225.584C163.88 224.517 164.349 223.365 164.349 222.128C164.349 220.763 163.858 219.589 162.877 218.608C161.896 217.584 160.722 217.072 159.357 217.072H154.493V227.12ZM154.429 246.192H158.397C159.933 246.192 161.256 245.637 162.365 244.528C163.474 243.376 164.029 242.032 164.029 240.496C164.029 238.96 163.474 237.637 162.365 236.528C161.256 235.419 159.933 234.864 158.397 234.864H154.493L154.429 246.192ZM172.947 253.68L180.883 209.712C180.925 209.541 181.032 209.456 181.203 209.456H190.483C190.653 209.456 190.76 209.541 190.803 209.712L198.419 253.68C198.461 253.893 198.376 254 198.163 254H191.059C190.888 254 190.781 253.893 190.739 253.68L190.035 249.008H181.331L180.627 253.68C180.584 253.893 180.477 254 180.307 254H173.203C173.032 254 172.947 253.893 172.947 253.68ZM182.611 242.16H188.755L186.131 224.176L185.747 221.808L185.491 224.176L182.611 242.16ZM205.773 254C205.602 254 205.517 253.893 205.517 253.68V217.2H197.197C196.983 217.2 196.877 217.093 196.877 216.88L196.941 209.712C196.941 209.541 197.026 209.456 197.197 209.456H221.517C221.73 209.456 221.837 209.541 221.837 209.712V216.88C221.837 217.093 221.751 217.2 221.581 217.2H213.197L213.26 253.68C213.26 253.893 213.175 254 213.005 254H205.773ZM236.774 254.64C234.512 254.64 232.422 254.064 230.502 252.912C228.582 251.717 227.046 250.139 225.894 248.176C224.784 246.213 224.23 244.059 224.23 241.712L224.358 209.712C224.358 209.541 224.443 209.456 224.614 209.456H231.782C231.952 209.456 232.038 209.541 232.038 209.712V241.712C232.038 243.163 232.486 244.4 233.382 245.424C234.32 246.405 235.451 246.896 236.774 246.896C238.139 246.896 239.27 246.405 240.166 245.424C241.104 244.4 241.574 243.163 241.574 241.712V209.712C241.574 209.541 241.659 209.456 241.83 209.456H248.998C249.168 209.456 249.254 209.541 249.254 209.712L249.382 241.712C249.382 244.101 248.806 246.277 247.654 248.24C246.544 250.203 245.03 251.76 243.11 252.912C241.232 254.064 239.12 254.64 236.774 254.64ZM260.835 254C260.664 254 260.579 253.893 260.579 253.68V217.2H252.259C252.046 217.2 251.939 217.093 251.939 216.88L252.003 209.712C252.003 209.541 252.088 209.456 252.259 209.456H276.579C276.792 209.456 276.899 209.541 276.899 209.712V216.88C276.899 217.093 276.814 217.2 276.643 217.2H268.259L268.323 253.68C268.323 253.893 268.238 254 268.067 254H260.835ZM274.947 253.68L282.883 209.712C282.925 209.541 283.032 209.456 283.203 209.456H292.483C292.653 209.456 292.76 209.541 292.803 209.712L300.419 253.68C300.461 253.893 300.376 254 300.163 254H293.059C292.888 254 292.781 253.893 292.739 253.68L292.035 249.008H283.331L282.627 253.68C282.584 253.893 282.477 254 282.307 254H275.203C275.032 254 274.947 253.893 274.947 253.68ZM284.611 242.16H290.755L288.131 224.176L287.747 221.808L287.491 224.176L284.611 242.16Z" fill="#503A23"/>
<rect x="164.119" y="115.777" width="114.762" height="47.9762" rx="5.5" fill="#503A23" stroke="#503A23"/>
<path d="M197.572 107.857H164.075C164.075 99.6368 128 61.1535 128 27.5273C128 11.0879 148.246 1 158.921 1C175.486 1 192.405 28.1846 218.186 32.7581C235.902 35.9007 247.267 37.2416 264.568 31.6372C266.13 31.1314 267.095 29.3268 266.777 27.5273C266.411 25.4561 264.406 24.202 262.359 24.5383C223.708 30.8899 204.198 17.0658 204.198 17.0658C204.198 17.0658 215.961 19.0655 223.708 18.5603C248.735 16.9284 260.472 0.999965 285.55 1C302.483 1.00002 314.999 14.3822 314.999 30.8899C314.999 58.5381 290.336 85.0655 278.188 107.857H240.273L246.899 82.8237C246.899 82.8237 245.918 77.1093 243.218 76.8457C240.781 76.6079 238.432 80.9556 238.432 80.9556L231.438 107.857H206.039L192.787 54.8019C192.787 54.8019 190.083 49.4316 187.265 50.3184C185.051 51.0153 184.321 54.8019 184.321 54.8019L197.572 107.857Z" fill="#503A23" stroke="#503A23"/>
<path d="M124.805 315.64C122.458 315.64 120.325 315.064 118.405 313.912C116.527 312.717 115.034 311.139 113.925 309.176C112.815 307.213 112.261 305.016 112.261 302.584L112.325 282.616C112.325 280.269 112.858 278.136 113.925 276.216C115.034 274.253 116.527 272.696 118.405 271.544C120.325 270.349 122.458 269.752 124.805 269.752C127.151 269.752 129.263 270.328 131.141 271.48C133.018 272.632 134.511 274.189 135.621 276.152C136.73 278.072 137.285 280.227 137.285 282.616V285.56C137.285 285.731 137.199 285.816 137.029 285.816H129.861C129.69 285.816 129.605 285.731 129.605 285.56V282.616C129.605 281.208 129.135 279.992 128.197 278.968C127.301 277.944 126.17 277.432 124.805 277.432C123.269 277.432 122.095 277.965 121.285 279.032C120.474 280.056 120.069 281.251 120.069 282.616V302.584C120.069 304.163 120.517 305.443 121.413 306.424C122.351 307.405 123.482 307.896 124.805 307.896C126.17 307.896 127.301 307.363 128.197 306.296C129.135 305.187 129.605 303.949 129.605 302.584V299.64C129.605 299.469 129.69 299.384 129.861 299.384H137.093C137.263 299.384 137.349 299.469 137.349 299.64V302.584C137.349 305.016 136.773 307.213 135.621 309.176C134.511 311.139 133.018 312.717 131.141 313.912C129.263 315.064 127.151 315.64 124.805 315.64ZM154.18 315.64C151.918 315.64 149.828 315.064 147.908 313.912C145.988 312.717 144.452 311.139 143.3 309.176C142.19 307.213 141.636 305.059 141.636 302.712L141.764 270.712C141.764 270.541 141.849 270.456 142.02 270.456H149.188C149.358 270.456 149.444 270.541 149.444 270.712V302.712C149.444 304.163 149.892 305.4 150.788 306.424C151.726 307.405 152.857 307.896 154.18 307.896C155.545 307.896 156.676 307.405 157.572 306.424C158.51 305.4 158.98 304.163 158.98 302.712V270.712C158.98 270.541 159.065 270.456 159.236 270.456H166.404C166.574 270.456 166.66 270.541 166.66 270.712L166.788 302.712C166.788 305.101 166.212 307.277 165.06 309.24C163.95 311.203 162.436 312.76 160.516 313.912C158.638 315.064 156.526 315.64 154.18 315.64ZM172.097 315C171.927 315 171.841 314.893 171.841 314.68L171.905 270.776C171.905 270.563 172.012 270.456 172.225 270.456H179.329C179.543 270.456 179.649 270.563 179.649 270.776L179.585 307.128H192.769C192.983 307.128 193.089 307.235 193.089 307.448V314.68C193.089 314.893 192.983 315 192.769 315H172.097ZM197.599 315C197.385 315 197.279 314.893 197.279 314.68L197.343 270.712C197.343 270.541 197.428 270.456 197.599 270.456H204.767C204.937 270.456 205.023 270.541 205.023 270.712L205.087 314.68C205.087 314.893 205.001 315 204.831 315H197.599ZM211.292 315C210.951 315 210.78 314.851 210.78 314.552L210.716 270.968C210.716 270.627 210.887 270.456 211.228 270.456H216.988L227.804 295.672L227.484 270.968C227.484 270.627 227.676 270.456 228.06 270.456H234.396C234.652 270.456 234.78 270.627 234.78 270.968L234.844 314.616C234.844 314.872 234.738 315 234.524 315H228.892L217.82 291.448L218.268 314.488C218.268 314.829 218.076 315 217.692 315H211.292ZM238.228 314.68L246.164 270.712C246.206 270.541 246.313 270.456 246.484 270.456H255.764C255.934 270.456 256.041 270.541 256.084 270.712L263.7 314.68C263.742 314.893 263.657 315 263.444 315H256.34C256.169 315 256.062 314.893 256.02 314.68L255.316 310.008H246.612L245.908 314.68C245.865 314.893 245.758 315 245.588 315H238.484C238.313 315 238.228 314.893 238.228 314.68ZM247.892 303.16H254.036L251.412 285.176L251.028 282.808L250.772 285.176L247.892 303.16ZM267.972 315C267.802 315 267.716 314.893 267.716 314.68L267.844 270.712C267.844 270.541 267.93 270.456 268.1 270.456H281.028C283.332 270.456 285.444 271.032 287.364 272.184C289.327 273.293 290.884 274.808 292.036 276.728C293.188 278.605 293.764 280.739 293.764 283.128C293.764 284.707 293.53 286.136 293.06 287.416C292.591 288.653 292.036 289.72 291.396 290.616C290.756 291.469 290.18 292.109 289.668 292.536C291.972 295.096 293.124 298.104 293.124 301.56L293.188 314.68C293.188 314.893 293.082 315 292.868 315H285.636C285.466 315 285.38 314.936 285.38 314.808V301.56C285.38 300.024 284.826 298.701 283.716 297.592C282.65 296.44 281.327 295.864 279.748 295.864H275.524L275.46 314.68C275.46 314.893 275.375 315 275.204 315H267.972ZM275.524 288.184H281.028C282.351 288.184 283.524 287.693 284.548 286.712C285.572 285.731 286.084 284.536 286.084 283.128C286.084 281.763 285.572 280.589 284.548 279.608C283.567 278.627 282.394 278.136 281.028 278.136H275.524V288.184ZM298.911 315C298.698 315 298.591 314.893 298.591 314.68L298.655 270.712C298.655 270.541 298.741 270.456 298.911 270.456H306.079C306.25 270.456 306.335 270.541 306.335 270.712L306.399 314.68C306.399 314.893 306.314 315 306.143 315H298.911ZM308.603 314.68L316.539 270.712C316.581 270.541 316.688 270.456 316.859 270.456H326.139C326.309 270.456 326.416 270.541 326.459 270.712L334.075 314.68C334.117 314.893 334.032 315 333.819 315H326.715C326.544 315 326.437 314.893 326.395 314.68L325.691 310.008H316.987L316.283 314.68C316.24 314.893 316.133 315 315.963 315H308.859C308.688 315 308.603 314.893 308.603 314.68ZM318.267 303.16H324.411L321.787 285.176L321.403 282.808L321.147 285.176L318.267 303.16Z" fill="#503A23"/>
<path d="M223 187C198.5 182.5 189.591 169.913 182 164H235C248.521 176.318 276.902 186.102 289 193C279.274 193.985 248.305 191.648 223 187Z" fill="#503A23"/>
<defs>
<filter id="filter0_i_149_1214" x="73.8677" y="116.669" width="295.416" height="241.331" filterUnits="userSpaceOnUse" color-interpolation-filters="sRGB">
<feFlood flood-opacity="0" result="BackgroundImageFix"/>
<feBlend mode="normal" in="SourceGraphic" in2="BackgroundImageFix" result="shape"/>
<feColorMatrix in="SourceAlpha" type="matrix" values="0 0 0 0 0 0 0 0 0 0 0 0 0 0 0 0 0 0 127 0" result="hardAlpha"/>
<feOffset dy="-11"/>
<feGaussianBlur stdDeviation="9"/>
<feComposite in2="hardAlpha" operator="arithmetic" k2="-1" k3="1"/>
<feColorMatrix type="matrix" values="0 0 0 0 0 0 0 0 0 0 0 0 0 0 0 0 0 0 0.25 0"/>
<feBlend mode="normal" in2="shape" result="effect1_innerShadow_149_1214"/>
</filter>
</defs>
</svg>
