<svg width="437" height="412" viewBox="0 0 437 412" fill="none" xmlns="http://www.w3.org/2000/svg">
<path d="M52.5494 319.4L164.764 107.998C187.704 64.78 249.635 64.8028 272.544 108.038L384.56 319.44C406.087 360.066 376.637 409 330.659 409H106.429C60.4319 409 30.9834 360.028 52.5494 319.4Z" fill="#F8EED9" stroke="#503A23" stroke-width="6"/>
<path d="M129.16 281.448H137.32L147.016 302.232L156.76 281.448H164.872V315H156.952V298.152L148.936 315H145.096L137.128 298.152V315H129.16V281.448ZM169.191 281.448H177.687V315H169.191V281.448ZM192.452 315.72C190.34 315.72 188.244 315.512 186.164 315.096C184.084 314.712 182.372 314.168 181.028 313.464V305.832C182.756 306.728 184.548 307.4 186.404 307.848C188.292 308.296 190.084 308.52 191.78 308.52C193.348 308.52 194.532 308.28 195.332 307.8C196.132 307.32 196.532 306.632 196.532 305.736C196.532 305.064 196.308 304.488 195.86 304.008C195.444 303.496 194.82 303.032 193.988 302.616C193.156 302.2 191.86 301.624 190.1 300.888C186.996 299.576 184.74 298.12 183.332 296.52C181.924 294.92 181.22 292.952 181.22 290.616C181.22 288.696 181.748 286.984 182.804 285.48C183.892 283.976 185.396 282.808 187.316 281.976C189.236 281.144 191.444 280.728 193.94 280.728C195.988 280.728 197.812 280.888 199.412 281.208C201.012 281.528 202.548 282.04 204.02 282.744V290.184C201.204 288.712 198.372 287.976 195.524 287.976C193.988 287.976 192.756 288.232 191.828 288.744C190.932 289.224 190.484 289.928 190.484 290.856C190.484 291.784 190.948 292.536 191.876 293.112C192.804 293.688 194.516 294.472 197.012 295.464C199.284 296.392 201.044 297.304 202.292 298.2C203.572 299.096 204.5 300.136 205.076 301.32C205.652 302.504 205.94 304.008 205.94 305.832C205.94 308.936 204.804 311.368 202.532 313.128C200.292 314.856 196.932 315.72 192.452 315.72ZM218.562 315.72C216.45 315.72 214.354 315.512 212.273 315.096C210.194 314.712 208.482 314.168 207.138 313.464V305.832C208.866 306.728 210.658 307.4 212.514 307.848C214.402 308.296 216.194 308.52 217.89 308.52C219.458 308.52 220.642 308.28 221.442 307.8C222.242 307.32 222.642 306.632 222.642 305.736C222.642 305.064 222.418 304.488 221.97 304.008C221.554 303.496 220.93 303.032 220.098 302.616C219.266 302.2 217.97 301.624 216.21 300.888C213.106 299.576 210.85 298.12 209.442 296.52C208.034 294.92 207.33 292.952 207.33 290.616C207.33 288.696 207.858 286.984 208.914 285.48C210.002 283.976 211.506 282.808 213.426 281.976C215.346 281.144 217.554 280.728 220.049 280.728C222.098 280.728 223.922 280.888 225.522 281.208C227.122 281.528 228.658 282.04 230.13 282.744V290.184C227.314 288.712 224.482 287.976 221.634 287.976C220.098 287.976 218.866 288.232 217.938 288.744C217.042 289.224 216.594 289.928 216.594 290.856C216.594 291.784 217.058 292.536 217.986 293.112C218.914 293.688 220.626 294.472 223.122 295.464C225.394 296.392 227.154 297.304 228.402 298.2C229.682 299.096 230.61 300.136 231.186 301.32C231.762 302.504 232.05 304.008 232.05 305.832C232.05 308.936 230.914 311.368 228.642 313.128C226.402 314.856 223.042 315.72 218.562 315.72ZM235.426 281.448H243.922V315H235.426V281.448ZM248.223 281.448H256.623L268.959 301.416V281.448H277.455V315H269.103L256.719 294.984V315H248.223V281.448ZM299.113 315.72C295.465 315.72 292.249 315.016 289.465 313.608C286.713 312.2 284.585 310.184 283.081 307.56C281.577 304.904 280.825 301.8 280.825 298.248C280.825 294.696 281.577 291.608 283.081 288.984C284.585 286.328 286.713 284.296 289.465 282.888C292.249 281.448 295.465 280.728 299.113 280.728C301.545 280.728 303.689 280.968 305.545 281.448C307.433 281.896 309.177 282.632 310.777 283.656V291.72C309.369 290.6 307.769 289.8 305.977 289.32C304.217 288.808 302.185 288.552 299.881 288.552C297.897 288.552 296.121 288.952 294.553 289.752C293.017 290.52 291.801 291.64 290.905 293.112C290.009 294.584 289.561 296.296 289.561 298.248C289.561 301.288 290.441 303.688 292.201 305.448C293.993 307.208 296.409 308.088 299.449 308.088C301.145 308.088 302.569 307.8 303.721 307.224V301.848H298.585V295.896H311.785V312.6C308.361 314.68 304.137 315.72 299.113 315.72Z" fill="#503A23"/>
<path d="M249.976 237.021C252.273 239.107 253.324 242.249 251.897 244.721C250.316 247.459 247.257 249.14 244.049 247.288C232.828 240.81 201.898 219.403 199.988 218.3C197.6 216.922 193.676 218.205 190.778 218.814C189.275 219.129 186.706 219.251 183.125 217.184C179.544 215.116 156.898 199.76 156.898 199.76C156.261 199.392 155.098 198.467 155.537 197.706C155.976 196.946 157.15 197.117 158.105 197.668L182.456 211.727C183.159 211.795 184.676 211.741 185.115 210.981C185.554 210.22 184.842 208.88 184.432 208.305L159.694 193.262C159.406 192.842 158.501 192.573 159.269 191.242C159.928 190.101 160.65 190.687 161.121 190.79L186.517 204.692C187.221 204.76 188.518 205.087 189.176 203.946C189.615 203.186 188.831 201.972 188.383 201.46L163.317 186.988C162.992 186.631 162.408 185.804 162.672 185.348C163.353 184.168 164.375 184.565 164.426 184.584C164.406 184.574 164.395 184.569 164.395 184.569C164.423 184.583 164.433 184.586 164.426 184.584C165.452 185.09 191.681 198.04 193.553 199.122C195.463 200.224 197.78 202.471 198.682 205.125C199.862 208.594 200.275 211.187 202.951 213.167C204.513 214.322 247.327 234.614 249.976 237.021Z" fill="#503A23"/>
<path d="M251.897 244.721C253.324 242.249 252.273 239.107 249.976 237.021C247.327 234.614 204.513 214.322 202.951 213.167C200.275 211.187 199.862 208.594 198.682 205.125C197.78 202.471 195.463 200.224 193.553 199.122C191.644 198.019 164.395 184.569 164.395 184.569C164.642 184.692 163.44 184.017 162.672 185.348C162.408 185.804 162.992 186.631 163.317 186.988L188.383 201.46C188.831 201.972 189.615 203.186 189.176 203.946C188.518 205.087 187.221 204.76 186.517 204.692L161.121 190.79C160.65 190.687 159.928 190.101 159.269 191.242C158.501 192.573 159.406 192.842 159.694 193.262L184.432 208.305C184.842 208.88 185.554 210.22 185.115 210.981C184.676 211.741 183.159 211.795 182.456 211.727L158.105 197.668C157.15 197.117 155.976 196.946 155.537 197.706C155.098 198.467 156.261 199.392 156.898 199.76C156.898 199.76 179.544 215.116 183.125 217.184C186.706 219.251 189.275 219.129 190.778 218.814C193.676 218.205 197.6 216.922 199.988 218.3C201.898 219.403 232.828 240.81 244.049 247.288C247.257 249.14 250.316 247.459 251.897 244.721Z" stroke="#503A23"/>
<path d="M235.247 220.867C231.428 221.653 205.473 239.832 192.503 248.587C189.42 249.607 183.992 250.612 182.06 247.265C180.084 243.843 184.046 239.528 186.356 237.94C200.648 230.703 228.809 217.233 231.515 214.403C233.069 212.778 235.954 207.446 236.812 204.5C237.823 202.396 241.596 197.175 248.606 193.128C257.368 188.069 275.133 184.15 279.524 191.755C283.914 199.36 268.225 213.235 262.217 216.704C257.704 219.309 250.543 221.923 246.692 221.611C242.84 221.3 240.021 219.886 235.247 220.867Z" fill="#503A23" stroke="#503A23"/>
<rect x="193.977" y="171.995" width="47.1121" height="19.3551" rx="5.5" fill="#503A23" stroke="#503A23"/>
<path d="M207.588 168.411H193.666C193.666 164.995 178.673 149.001 178.673 135.025C178.673 128.193 187.088 124 191.524 124C198.409 124 205.441 135.298 216.156 137.199C223.519 138.505 228.242 139.063 235.433 136.733C236.082 136.523 236.483 135.773 236.351 135.025C236.199 134.164 235.365 133.643 234.515 133.783C218.451 136.423 210.342 130.677 210.342 130.677C210.342 130.677 215.231 131.508 218.451 131.298C228.852 130.62 233.73 124 244.153 124C251.191 124 256.393 129.562 256.393 136.423C256.393 147.914 246.142 158.939 241.093 168.411H225.335L228.089 158.007C228.089 158.007 227.681 155.632 226.559 155.523C225.547 155.424 224.57 157.231 224.57 157.231L221.664 168.411H211.107L205.599 146.361C205.599 146.361 204.476 144.129 203.305 144.497C202.384 144.787 202.081 146.361 202.081 146.361L207.588 168.411Z" fill="#503A23" stroke="#503A23"/>
<path d="M148.59 334.448H157.086V368H148.59V334.448ZM161.387 334.448H169.547L179.243 355.232L188.987 334.448H197.099V368H189.179V351.152L181.163 368H177.323L169.355 351.152V368H161.387V334.448ZM212.679 334.448H221.031L234.423 368H225.735L223.047 361.088H210.663L207.975 368H199.239L212.679 334.448ZM220.935 354.56L216.855 343.28L212.727 354.56H220.935ZM252.496 368.72C248.848 368.72 245.632 368.016 242.848 366.608C240.096 365.2 237.968 363.184 236.464 360.56C234.96 357.904 234.208 354.8 234.208 351.248C234.208 347.696 234.96 344.608 236.464 341.984C237.968 339.328 240.096 337.296 242.848 335.888C245.632 334.448 248.848 333.728 252.496 333.728C254.928 333.728 257.072 333.968 258.928 334.448C260.816 334.896 262.56 335.632 264.16 336.656V344.72C262.752 343.6 261.152 342.8 259.36 342.32C257.6 341.808 255.568 341.552 253.264 341.552C251.28 341.552 249.504 341.952 247.936 342.752C246.4 343.52 245.184 344.64 244.288 346.112C243.392 347.584 242.944 349.296 242.944 351.248C242.944 354.288 243.824 356.688 245.584 358.448C247.376 360.208 249.792 361.088 252.832 361.088C254.528 361.088 255.952 360.8 257.104 360.224V354.848H251.968V348.896H265.168V365.6C261.744 367.68 257.52 368.72 252.496 368.72ZM268.543 334.448H292.351V341.6H277.039V347.888H288.223V354.56H277.039V360.848H292.351V368H268.543V334.448Z" fill="#503A23"/>
</svg>
