<svg width="125" height="57" viewBox="0 0 125 57" fill="none" xmlns="http://www.w3.org/2000/svg">
<path d="M53.04 23.68C53.2533 23.7067 53.4267 23.8133 53.56 24C53.6933 24.16 53.7467 24.3467 53.72 24.56C53.0267 29.2267 51.7867 32.9867 50 35.84C49.6267 36.4 49.2 36.96 48.72 37.52C48.2667 38.08 47.7467 38.5733 47.16 39C46.6 39.4533 45.9733 39.8133 45.28 40.08C44.5867 40.3733 43.84 40.52 43.04 40.52C42.0533 40.52 41.04 40.36 40 40.04C38.9867 39.72 37.9467 39.2933 36.88 38.76C35.84 38.2533 34.7867 37.6667 33.72 37C32.6533 36.36 31.6 35.6933 30.56 35L29.04 34C28.5867 34.6667 28.0667 35.2133 27.48 35.64C26.92 36.04 26.28 36.36 25.56 36.6C24.84 36.8133 24.0533 36.96 23.2 37.04C22.3733 37.12 21.4933 37.16 20.56 37.16C19.4133 37.16 18.4533 36.88 17.68 36.32C16.9333 35.76 16.44 35.08 16.2 34.28C16.0667 33.8533 16.0133 33.3867 16.04 32.88C16.0933 32.3733 16.24 31.8933 16.48 31.44C16.7467 30.96 17.12 30.52 17.6 30.12C18.1067 29.72 18.7467 29.3867 19.52 29.12C20.3467 28.8533 21.2133 28.8 22.12 28.96C23.0267 29.12 23.9867 29.4267 25 29.88V29.64C25.1067 28.04 25.0533 26.2533 24.84 24.28C24.6533 22.28 24.4267 20.28 24.16 18.28C24.08 17.6667 24 17.0667 23.92 16.48C23.84 15.8667 23.7733 15.2667 23.72 14.68C22.36 15.1333 20.9467 15.5067 19.48 15.8C18.04 16.0933 16.5867 16.3733 15.12 16.64C13.4667 16.9333 11.8933 17.24 10.4 17.56C8.90667 17.8533 7.56 18.2667 6.36 18.8C5.08 19.3867 4.09333 20.08 3.4 20.88C2.73333 21.68 2.29333 22.6533 2.08 23.8C2.02667 24.0133 1.90667 24.1867 1.72 24.32C1.56 24.4533 1.37333 24.4933 1.16 24.44C0.946667 24.3867 0.773333 24.28 0.64 24.12C0.506667 23.9333 0.466667 23.7333 0.52 23.52C1 20.7733 2.73333 18.72 5.72 17.36C7 16.7733 8.41333 16.32 9.96 16C11.5333 15.6533 13.16 15.3333 14.84 15.04C16.36 14.7733 17.8533 14.4933 19.32 14.2C20.7867 13.9067 22.1867 13.52 23.52 13.04C23.36 11.28 23.28 9.65333 23.28 8.16C23.28 6.66667 23.4533 5.36 23.8 4.24C24.1733 3.12 24.7067 2.21333 25.4 1.52C26.12 0.799999 26.96 0.346665 27.92 0.159997C28.6133 0.0533306 29.2667 0.0933309 29.88 0.279998C30.4933 0.466664 31.08 0.759998 31.64 1.16L32.16 1.72C32.7467 2.46667 33.0667 3.33333 33.12 4.32C33.1733 5.28 32.9733 6.29333 32.52 7.36C31.72 9.17333 30.5467 10.6933 29 11.92C29.08 12.9333 29.1867 13.9733 29.32 15.04C29.4533 16.08 29.5867 17.1333 29.72 18.2C29.8533 19.24 30.0267 20.36 30.24 21.56C30.4533 22.76 30.6133 23.9733 30.72 25.2C30.8267 26.4267 30.84 27.64 30.76 28.84C30.68 30.04 30.4267 31.1467 30 32.16C30.8 32.72 31.7333 33.2667 32.8 33.8C33.8933 34.3333 35.0267 34.8133 36.2 35.24C37.3733 35.6667 38.56 36 39.76 36.24C40.9867 36.48 42.1467 36.5733 43.24 36.52C44.68 36.4667 45.92 36.0267 46.96 35.2C48 34.3467 48.8667 33.32 49.56 32.12C50.28 30.8933 50.84 29.5867 51.24 28.2C51.6667 26.7867 51.96 25.4933 52.12 24.32C52.1733 24.1067 52.28 23.9333 52.44 23.8C52.6267 23.6667 52.8267 23.6267 53.04 23.68ZM19.08 35.28C19.88 35.6533 20.8933 35.6667 22.12 35.32C23 35.08 23.68 34.48 24.16 33.52C24.4267 32.9867 24.64 32.3333 24.8 31.56L24.52 31.44C23.16 30.8 22.0133 30.48 21.08 30.48C20.8933 30.48 20.7067 30.4933 20.52 30.52C20.36 30.5467 20.2 30.5867 20.04 30.64C19 31.0133 18.3067 31.5067 17.96 32.12C17.64 32.7333 17.56 33.3067 17.72 33.84C17.9333 34.48 18.3867 34.96 19.08 35.28ZM31.04 6.72C31.3067 6.10667 31.4267 5.48 31.4 4.84C31.4 4.2 31.3067 3.73333 31.12 3.44C30.9333 3.12 30.6667 3.06667 30.32 3.28C30 3.46667 29.6667 4.08 29.32 5.12C29.1333 5.73333 29 6.45333 28.92 7.28C28.8667 8.08 28.8533 8.94666 28.88 9.88C29.3333 9.42666 29.7333 8.94666 30.08 8.44C30.4533 7.90667 30.7733 7.33333 31.04 6.72ZM67.7541 24.84C67.9141 25 67.9807 25.2 67.9541 25.44C67.9541 25.6533 67.8741 25.8267 67.7141 25.96C66.9674 26.6267 66.1807 26.96 65.3541 26.96C65.1141 26.96 64.8741 26.9333 64.6341 26.88C64.4207 26.8267 64.1807 26.76 63.9141 26.68C63.6741 26.5733 63.4207 26.4667 63.1541 26.36C62.9141 26.2267 62.6741 26.08 62.4341 25.92C62.5941 26.56 62.6741 27.2533 62.6741 28C62.6741 29.76 62.2207 31.28 61.3141 32.56C60.7807 33.2533 60.1407 33.8 59.3941 34.2C58.6741 34.5733 57.8874 34.76 57.0341 34.76C56.0207 34.76 55.1007 34.5867 54.2741 34.24C53.4741 33.8933 52.7674 33.4 52.1541 32.76C51.6207 32.2 51.2207 31.5467 50.9541 30.8C50.6874 30.0533 50.5541 29.2533 50.5541 28.4C50.5541 27.5467 50.7007 26.72 50.9941 25.92C51.2874 25.12 51.7007 24.4133 52.2341 23.8C53.4874 22.3867 55.1674 21.68 57.2741 21.68C58.1541 21.68 58.9407 21.8533 59.6341 22.2C60.3274 22.52 61.0474 22.9467 61.7941 23.48C62.3007 23.88 62.7674 24.24 63.1941 24.56C63.6474 24.8533 64.0741 25.0667 64.4741 25.2C64.8741 25.3333 65.2474 25.3733 65.5941 25.32C65.9674 25.2667 66.3141 25.0933 66.6341 24.8C66.7941 24.64 66.9807 24.5733 67.1941 24.6C67.4341 24.6 67.6207 24.68 67.7541 24.84ZM56.2741 28.84C56.3807 30.0133 56.6874 30.84 57.1941 31.32C57.7274 31.8 58.2741 31.9867 58.8341 31.88C59.4207 31.7733 59.9407 31.3867 60.3941 30.72C60.8474 30.0533 61.0741 29.1467 61.0741 28C61.0741 27.36 60.9941 26.76 60.8341 26.2C60.6741 25.6133 60.4341 25.1067 60.1141 24.68C59.7941 24.28 59.4341 23.96 59.0341 23.72C58.5007 23.96 58.0474 24.28 57.6741 24.68C57.3007 25.0533 56.9941 25.4667 56.7541 25.92C56.5407 26.3733 56.3941 26.8533 56.3141 27.36C56.2341 27.8667 56.2207 28.36 56.2741 28.84ZM89.0472 23.92C89.2339 24.0267 89.3539 24.1867 89.4072 24.4C89.4872 24.5867 89.4739 24.7867 89.3672 25C88.7539 26.1467 87.8739 27.3067 86.7272 28.48C85.6072 29.6533 84.3272 30.8933 82.8872 32.2C82.9672 32.9733 83.0205 33.8933 83.0472 34.96C83.0739 36 83.0605 37.0933 83.0072 38.24C82.9805 39.4133 82.9005 40.6 82.7672 41.8C82.6605 43.0267 82.5005 44.2133 82.2872 45.36C82.0739 46.5333 81.8072 47.6133 81.4872 48.6C81.1672 49.6133 80.7805 50.4933 80.3272 51.24C79.5539 52.4667 78.7005 53.5067 77.7672 54.36C76.8339 55.2133 75.8339 55.84 74.7672 56.24C73.9405 56.5867 73.0205 56.76 72.0072 56.76C71.0205 56.7867 70.1139 56.56 69.2872 56.08C68.6205 55.7333 68.0605 55.2667 67.6072 54.68C67.1539 54.12 66.8205 53.48 66.6072 52.76C66.2072 51.16 66.4072 49.4533 67.2072 47.64C67.7672 46.4133 68.4205 45.24 69.1672 44.12C69.9139 43 70.7272 41.9067 71.6072 40.84C72.4872 39.8 73.4072 38.7867 74.3672 37.8C75.3539 36.84 76.3539 35.9067 77.3672 35C77.3672 33.64 77.3272 32.2933 77.2472 30.96C77.1672 29.6 77.0605 28.2133 76.9272 26.8C76.4739 28.1333 75.9805 29.32 75.4472 30.36C74.9139 31.4 74.3672 32.3067 73.8072 33.08C73.5672 33.4 73.2605 33.7467 72.8872 34.12C72.5405 34.4933 72.1539 34.8267 71.7272 35.12C71.3272 35.4133 70.8872 35.64 70.4072 35.8C69.9539 35.96 69.4872 35.9733 69.0072 35.84C67.8605 35.68 66.9405 34.9867 66.2472 33.76C65.5272 32.5333 65.1672 30.9867 65.1672 29.12C65.1672 27.1467 65.6472 25.4133 66.6072 23.92C67.0872 23.2267 67.6339 22.6667 68.2472 22.24C68.8872 21.7867 69.5539 21.4933 70.2472 21.36C71.5272 21.1467 72.7405 21.4933 73.8872 22.4C74.6872 23.0667 75.3539 23.92 75.8872 24.96C76.0205 24.6133 76.1272 24.2667 76.2072 23.92C76.3139 23.5467 76.4205 23.1733 76.5272 22.8C76.5272 22.64 76.6472 22.44 76.8872 22.2C77.1539 21.96 77.4739 21.7467 77.8472 21.56C78.2472 21.3467 78.6739 21.16 79.1272 21C79.5805 20.84 80.0072 20.76 80.4072 20.76C80.8072 20.7333 81.1539 20.8133 81.4472 21C81.7405 21.16 81.9272 21.44 82.0072 21.84C82.0072 21.84 82.0339 22.08 82.0872 22.56C82.1405 23.04 82.2072 23.6667 82.2872 24.44C82.3672 25.1867 82.4472 26.0667 82.5272 27.08C82.6339 28.0667 82.7139 29.08 82.7672 30.12C83.9405 29.0533 84.9672 28.04 85.8472 27.08C86.7539 26.12 87.4605 25.1733 87.9672 24.24C88.0739 24.0533 88.2205 23.9333 88.4072 23.88C88.6205 23.8 88.8339 23.8133 89.0472 23.92ZM72.5272 32.12C73.4605 30.8667 74.3272 29.2 75.1272 27.12C74.7539 25.7067 74.3139 24.8267 73.8072 24.48C73.3272 24.1333 72.8605 24.1467 72.4072 24.52C71.9539 24.8667 71.5672 25.48 71.2472 26.36C70.9272 27.2133 70.7672 28.1333 70.7672 29.12C70.7672 29.52 70.7939 30.0267 70.8472 30.64C70.9005 31.2267 70.9939 31.7333 71.1272 32.16C71.2605 32.5867 71.4339 32.84 71.6472 32.92C71.8872 33 72.1805 32.7333 72.5272 32.12ZM68.6472 48.28C68.0072 49.7467 67.7939 50.9733 68.0072 51.96C68.2205 52.9467 68.6739 53.5733 69.3672 53.84C70.0872 54.1333 70.9539 54.0133 71.9672 53.48C73.0072 52.9733 74.0072 51.9467 74.9672 50.4C75.7139 49.1733 76.2872 47.44 76.6872 45.2C77.0872 42.9867 77.3139 40.3067 77.3672 37.16C75.6339 38.8133 73.9805 40.56 72.4072 42.4C70.8339 44.24 69.5805 46.2 68.6472 48.28ZM99.46 23.84C99.6733 23.8933 99.8467 24.0133 99.98 24.2C100.113 24.36 100.153 24.5467 100.1 24.76C100.1 24.76 100.047 25.04 99.94 25.6C99.86 26.1333 99.7267 26.8267 99.54 27.68C99.38 28.5333 99.1667 29.5067 98.9 30.6C98.66 31.6933 98.3667 32.8 98.02 33.92C97.5933 35.28 97.1667 36.48 96.74 37.52C96.3133 38.56 95.8733 39.4533 95.42 40.2C94.8867 41.16 94.26 41.88 93.54 42.36C92.82 42.84 92.1 43.0533 91.38 43C90.6867 42.9467 90.0333 42.6267 89.42 42.04C88.8067 41.4533 88.34 40.5867 88.02 39.44C87.54 37.8933 87.26 35.8133 87.18 33.2C87.1533 32.1333 87.1533 31.0667 87.18 30C87.2067 28.9333 87.2467 27.9733 87.3 27.12C87.3533 26.2667 87.4067 25.5733 87.46 25.04C87.5133 24.48 87.54 24.1733 87.54 24.12C87.5933 23.7733 87.9133 23.5333 88.5 23.4C89.0867 23.24 89.7133 23.2133 90.38 23.32C91.0733 23.4267 91.7 23.6667 92.26 24.04C92.82 24.4133 93.0867 24.96 93.06 25.68C93.06 25.7067 93.0067 26.24 92.9 27.28C92.82 28.32 92.7667 29.7333 92.74 31.52C92.74 36.1333 93.0733 38.5467 93.74 38.76C94.4067 39 95.3133 37.24 96.46 33.48C96.78 32.3867 97.0733 31.3067 97.34 30.24C97.6067 29.1733 97.82 28.2267 97.98 27.4C98.1667 26.5467 98.3 25.8533 98.38 25.32C98.4867 24.7867 98.54 24.52 98.54 24.52C98.5933 24.3067 98.7 24.1333 98.86 24C99.0467 23.84 99.2467 23.7867 99.46 23.84ZM92.62 17.04C92.62 16.48 92.42 16.0133 92.02 15.64C91.6467 15.2667 91.1667 15.08 90.58 15.08C90.0467 15.08 89.58 15.2667 89.18 15.64C88.8067 16.0133 88.62 16.48 88.62 17.04C88.62 17.5733 88.8067 18.0267 89.18 18.4C89.58 18.7733 90.0467 18.96 90.58 18.96C91.1667 18.96 91.6467 18.7733 92.02 18.4C92.42 18.0267 92.62 17.5733 92.62 17.04ZM124.157 23.64C124.37 23.6933 124.517 23.8267 124.597 24.04C124.703 24.2267 124.73 24.4267 124.677 24.64C124.677 24.6933 124.597 24.9467 124.437 25.4C124.303 25.8533 124.103 26.4533 123.837 27.2C123.57 27.9467 123.25 28.7867 122.877 29.72C122.503 30.6533 122.09 31.6133 121.637 32.6C120.49 34.9733 119.37 36.8267 118.277 38.16C116.757 39.9733 115.223 40.88 113.677 40.88C112.69 40.88 111.917 40.5333 111.357 39.84C110.957 39.36 110.69 38.7333 110.557 37.96C110.45 37.1867 110.423 36.3333 110.477 35.4C110.557 34.44 110.69 33.4133 110.877 32.32C111.09 31.2267 111.317 30.1067 111.557 28.96C111.77 27.9733 111.957 27.04 112.117 26.16C112.303 25.2533 112.437 24.4133 112.517 23.64C112.597 22.7067 112.597 22.0267 112.517 21.6C112.463 21.1733 112.37 20.8933 112.237 20.76C112.183 20.7067 112.117 20.6667 112.037 20.64C111.957 20.5867 111.837 20.56 111.677 20.56C111.25 20.56 110.77 20.7867 110.237 21.24C109.73 21.6667 109.17 22.44 108.557 23.56C107.943 24.68 107.263 26.2 106.517 28.12C105.797 30.0133 105.01 32.4133 104.157 35.32C104.077 35.9333 103.717 36.4 103.077 36.72C102.463 37.04 101.797 37.2267 101.077 37.28C100.357 37.36 99.6899 37.2933 99.0766 37.08C98.4899 36.8933 98.1966 36.5867 98.1966 36.16C98.1432 34.6133 98.1299 33.1333 98.1566 31.72C98.1832 30.28 98.2232 29.0267 98.2766 27.96C98.3299 26.8667 98.3832 26 98.4366 25.36C98.4632 24.6933 98.4766 24.36 98.4766 24.36C98.5032 23.7733 98.8099 23.36 99.3966 23.12C99.9832 22.88 100.623 22.8133 101.317 22.92C102.01 23 102.637 23.24 103.197 23.64C103.783 24.04 104.063 24.5733 104.037 25.24C104.037 25.2667 104.023 25.7467 103.997 26.68C103.97 27.6133 103.93 29.0133 103.877 30.88C104.197 29.92 104.53 28.9467 104.877 27.96C105.25 26.9733 105.637 26.04 106.037 25.16C106.463 24.2267 106.877 23.4133 107.277 22.72C107.677 22 108.09 21.3867 108.517 20.88C108.917 20.3733 109.423 19.9333 110.037 19.56C110.677 19.1867 111.343 18.92 112.037 18.76C112.73 18.5733 113.437 18.5333 114.157 18.64C114.877 18.72 115.543 18.96 116.157 19.36C116.797 19.8133 117.29 20.4267 117.637 21.2C117.983 21.9733 118.157 22.84 118.157 23.8C118.157 24.76 118.05 25.8133 117.837 26.96C117.623 28.1067 117.37 29.2667 117.077 30.44C116.65 32.36 116.397 33.8933 116.317 35.04C116.237 36.1867 116.317 36.8533 116.557 37.04C116.823 37.2533 117.25 36.9467 117.837 36.12C118.45 35.2933 119.237 33.88 120.197 31.88C120.65 30.92 121.05 29.9867 121.397 29.08C121.77 28.1467 122.09 27.32 122.357 26.6C122.623 25.88 122.823 25.2933 122.957 24.84C123.09 24.3867 123.157 24.16 123.157 24.16C123.21 23.9467 123.33 23.8 123.517 23.72C123.73 23.6133 123.943 23.5867 124.157 23.64Z" fill="#452E17"/>
</svg>
