<svg width="20" height="20" viewBox="0 0 20 20" fill="none" xmlns="http://www.w3.org/2000/svg">
<rect width="20" height="20" fill="#FAEFD8"/>
<path d="M3.3 17.5C3.5 18.9 4.6 20 6 20H14C15.4 20 16.6 18.9 16.7 17.5L17.8 7H2.2L3.3 17.5ZM19 4H18.2L16.6 1.7C16.3 1.3 15.9 1 15.3 1H12.4C12.5 0.8 12.4 0.5 12.3 0.3C12.2 0.1 12 0 11.8 0H8.2C8 0 7.8 0.1 7.6 0.3C7.5 0.5 7.5 0.8 7.5 1H4.7C4.2 1 3.7 1.3 3.5 1.7L1.8 4H1C0.4 4 0 4.4 0 5C0 5.6 0.4 6 1 6H19C19.6 6 20 5.6 20 5C20 4.4 19.6 4 19 4Z" fill="#452E17"/>
</svg>
