<svg width="28" height="16" viewBox="0 0 28 16" fill="none" xmlns="http://www.w3.org/2000/svg">
<g clip-path="url(#clip0_119_274)">
<path d="M3.08893 7.50166L0.441284 14.5621L0.882559 15.4446L5.73658 15.0033H18.9748L26.9178 14.1208L26.0352 8.82549L23.3876 4.41274L18.9748 1.32381L13.2383 0.882538L7.50168 2.64764L3.08893 7.50166Z" fill="#89F76E"/>
<path d="M27.5484 13.6099C27.4767 14.0458 27.3821 14.4778 27.2651 14.9039C27.1449 15.2953 26.8921 15.3643 26.4721 15.2814C26.2224 15.2324 25.9679 15.2129 25.7137 15.2229C23.9996 15.2901 22.2866 15.3981 20.5715 15.4371C17.7122 15.5022 14.8529 15.5165 11.9936 15.5692C9.7855 15.61 7.57779 15.6658 5.37042 15.7367C4.22784 15.7734 3.08757 15.8612 1.945 15.9182C1.66908 15.9302 1.39273 15.9278 1.11706 15.9111C0.34793 15.8692 0.0486192 15.5905 0.0405485 14.8142C0.0272994 14.2826 0.0718374 13.751 0.173373 13.229C1.17863 8.482 3.44533 4.49747 7.70976 2.00377C12.023 -0.518475 16.5529 -0.589076 21.0587 1.62653C22.8083 2.48684 24.1617 3.82706 25.2915 5.40772C26.6394 7.29365 27.263 9.41062 27.3977 11.697C27.4306 12.2469 27.4837 12.7955 27.5484 13.6099ZM15.0035 12.213C16.4056 11.1349 17.7309 10.1125 19.0619 9.09702C19.2195 8.9788 19.3909 8.88018 19.5724 8.80329C19.9298 8.64893 20.2405 8.71394 20.4313 8.95785C20.5258 9.08638 20.5706 9.2447 20.5576 9.40361C20.5446 9.56253 20.4745 9.71136 20.3602 9.82279C20.1445 10.0517 19.9063 10.2585 19.6493 10.44C18.537 11.2559 17.4163 12.0603 16.3012 12.8725C16.2088 12.9478 16.1217 13.0294 16.0408 13.117C16.1587 13.5164 16.2626 13.8683 16.3904 14.3007L25.9241 13.896C26.0034 13.2169 25.771 10.9962 25.5567 10.3668C25.266 10.4761 24.9755 10.5863 24.6844 10.6951C24.2603 10.8535 23.8427 11.0346 23.4096 11.1616C23.2382 11.2161 23.0527 11.2047 22.8893 11.1296C22.7259 11.0545 22.5966 10.9212 22.5266 10.7557C22.3904 10.4371 22.488 10.1234 22.8148 9.88287C22.9433 9.7916 23.0806 9.71356 23.2248 9.64991C23.6719 9.44421 24.1234 9.24817 24.5722 9.04592C24.7986 8.94382 25.0227 8.83641 25.2712 8.7205C24.5541 6.93633 23.5938 5.38433 22.1339 4.11618C21.8012 4.58053 21.4967 5.01553 21.1804 5.44166C21.0582 5.61979 20.9144 5.7822 20.7523 5.92514C20.4424 6.17688 20.1297 6.18989 19.8816 6.00433C19.6335 5.81878 19.5541 5.43328 19.7425 5.09279C19.8772 4.87589 20.0354 4.6744 20.2144 4.49202C20.5372 4.13047 20.8699 3.77837 21.2415 3.37641C19.1201 2.06418 16.9203 1.42743 14.4549 1.46184C14.5362 2.1381 14.6229 2.73949 14.674 3.34393C14.696 3.61507 14.6791 3.88798 14.624 4.1544C14.5526 4.49892 14.2992 4.68646 13.9506 4.72146C13.7813 4.7372 13.6119 4.69387 13.471 4.59887C13.3302 4.50388 13.2267 4.36311 13.1781 4.20049C13.1103 3.97663 13.0775 3.74368 13.0808 3.50984C13.0682 2.8863 13.0765 2.26241 13.0765 1.57487C10.5667 1.93067 8.42482 2.84279 6.5138 4.48331C6.88009 4.81712 7.19404 5.08186 7.48228 5.37354C7.68074 5.55919 7.84891 5.77465 7.9807 6.01215C8.04403 6.13774 8.06063 6.28172 8.02752 6.41839C7.99441 6.55507 7.91375 6.67556 7.79992 6.75838C7.57094 6.94854 7.29977 7.01841 7.0332 6.85185C6.83516 6.72568 6.65343 6.57566 6.49212 6.40513C6.18544 6.08455 5.89893 5.74464 5.5844 5.39057C4.32598 6.7694 3.29734 8.34092 2.53773 10.0452C2.76913 10.1384 2.96432 10.2207 3.16274 10.2963C3.53088 10.4366 3.90824 10.5556 4.26612 10.718C4.46373 10.8019 4.63875 10.9312 4.77699 11.0953C5.04863 11.448 4.87568 11.8807 4.43376 11.9285C4.18253 11.9416 3.93187 11.8936 3.70325 11.7889C3.17992 11.5702 2.67366 11.3095 2.12716 11.0502C1.65145 12.2862 1.29254 13.4938 1.21056 14.8154C4.63103 14.6312 7.98923 14.4508 11.3477 14.2709C11.9416 12.288 13.6251 11.7898 15.0035 12.213ZM14.8832 14.2541C14.7707 13.4902 14.4587 13.2459 13.7764 13.3823C13.5204 13.427 13.2777 13.5285 13.0664 13.6794C12.8551 13.8303 12.6804 14.0267 12.5554 14.2541H14.8832Z" fill="#452E17"/>
</g>
<defs>
<clipPath id="clip0_119_274">
<rect width="27.5556" height="16" fill="white"/>
</clipPath>
</defs>
</svg>
