<svg width="28" height="16" viewBox="0 0 28 16" fill="none" xmlns="http://www.w3.org/2000/svg">
<g clip-path="url(#clip0_94_1992)">
<path d="M3.08893 7.50169L0.441284 14.5621L0.882559 15.4446L5.73658 15.0034H18.9748L26.9178 14.1208L26.0352 8.82552L23.3876 4.41277L18.9748 1.32384L13.2383 0.882568L7.50168 2.64767L3.08893 7.50169Z" fill="#F7E76E"/>
<path d="M27.5485 13.6099C27.4767 14.0458 27.3822 14.4778 27.2652 14.9039C27.1449 15.2953 26.8922 15.3643 26.4722 15.2814C26.2225 15.2324 25.968 15.2129 25.7138 15.2229C23.9997 15.2901 22.2866 15.3981 20.5716 15.4371C17.7123 15.5022 14.853 15.5165 11.9936 15.5692C9.78556 15.61 7.57785 15.6658 5.37048 15.7367C4.2279 15.7734 3.08763 15.8612 1.94506 15.9182C1.66914 15.9302 1.39279 15.9278 1.11713 15.9111C0.347991 15.8692 0.0486802 15.5905 0.0406095 14.8142C0.0273604 14.2826 0.0718985 13.751 0.173434 13.229C1.17869 8.482 3.44539 4.49747 7.70982 2.00377C12.023 -0.518475 16.553 -0.589076 21.0587 1.62653C22.8083 2.48684 24.1618 3.82706 25.2916 5.40772C26.6395 7.29365 27.2631 9.41062 27.3978 11.697C27.4306 12.2469 27.4838 12.7955 27.5485 13.6099ZM15.0035 12.213C16.4056 11.1349 17.731 10.1125 19.0619 9.09702C19.2195 8.9788 19.391 8.88018 19.5725 8.80329C19.9299 8.64893 20.2406 8.71394 20.4314 8.95785C20.5258 9.08638 20.5707 9.2447 20.5577 9.40361C20.5446 9.56253 20.4745 9.71136 20.3603 9.82279C20.1445 10.0517 19.9063 10.2585 19.6494 10.44C18.5371 11.2559 17.4163 12.0603 16.3013 12.8725C16.2088 12.9478 16.1218 13.0294 16.0408 13.117C16.1588 13.5164 16.2627 13.8683 16.3904 14.3007L25.9242 13.896C26.0035 13.2169 25.7711 10.9962 25.5567 10.3668C25.2661 10.4761 24.9755 10.5863 24.6844 10.6951C24.2604 10.8535 23.8428 11.0346 23.4097 11.1616C23.2383 11.2161 23.0528 11.2047 22.8894 11.1296C22.726 11.0545 22.5966 10.9212 22.5267 10.7557C22.3905 10.4371 22.488 10.1234 22.8149 9.88287C22.9433 9.7916 23.0807 9.71356 23.2249 9.64991C23.672 9.44421 24.1235 9.24817 24.5722 9.04592C24.7987 8.94382 25.0228 8.83641 25.2713 8.7205C24.5541 6.93633 23.5938 5.38433 22.134 4.11618C21.8012 4.58053 21.4967 5.01553 21.1805 5.44166C21.0583 5.61979 20.9145 5.7822 20.7524 5.92514C20.4425 6.17688 20.1298 6.18989 19.8817 6.00433C19.6336 5.81878 19.5541 5.43328 19.7425 5.09279C19.8773 4.87589 20.0355 4.6744 20.2144 4.49202C20.5372 4.13047 20.87 3.77837 21.2416 3.37641C19.1201 2.06418 16.9203 1.42743 14.455 1.46184C14.5362 2.1381 14.6229 2.73949 14.674 3.34393C14.696 3.61507 14.6792 3.88798 14.6241 4.1544C14.5526 4.49892 14.2993 4.68646 13.9507 4.72146C13.7814 4.7372 13.6119 4.69387 13.471 4.59887C13.3303 4.50388 13.2267 4.36311 13.1782 4.20049C13.1104 3.97663 13.0775 3.74368 13.0809 3.50984C13.0683 2.8863 13.0766 2.26241 13.0766 1.57487C10.5667 1.93067 8.42488 2.84279 6.51386 4.48331C6.88015 4.81712 7.1941 5.08186 7.48234 5.37354C7.6808 5.55919 7.84897 5.77465 7.98076 6.01215C8.04409 6.13774 8.0607 6.28172 8.02758 6.41839C7.99447 6.55507 7.91381 6.67556 7.79998 6.75838C7.571 6.94854 7.29983 7.01841 7.03327 6.85185C6.83522 6.72568 6.65349 6.57566 6.49218 6.40513C6.1855 6.08455 5.89899 5.74464 5.58447 5.39057C4.32604 6.7694 3.2974 8.34092 2.53779 10.0452C2.76919 10.1384 2.96438 10.2207 3.1628 10.2963C3.53094 10.4366 3.9083 10.5556 4.26618 10.718C4.4638 10.8019 4.63881 10.9312 4.77705 11.0953C5.04869 11.448 4.87575 11.8807 4.43382 11.9285C4.18259 11.9416 3.93193 11.8936 3.70331 11.7889C3.17998 11.5702 2.67372 11.3095 2.12722 11.0502C1.65151 12.2862 1.2926 13.4938 1.21063 14.8154C4.63109 14.6312 7.98929 14.4508 11.3477 14.2709C11.9416 12.288 13.6252 11.7898 15.0035 12.213ZM14.8833 14.2541C14.7708 13.4902 14.4588 13.2459 13.7764 13.3823C13.5205 13.427 13.2778 13.5285 13.0665 13.6794C12.8551 13.8303 12.6804 14.0267 12.5555 14.2541H14.8833Z" fill="#452E17"/>
</g>
<defs>
<clipPath id="clip0_94_1992">
<rect width="27.5556" height="16" fill="white"/>
</clipPath>
</defs>
</svg>
