<svg width="29" height="18" viewBox="0 0 29 18" fill="none" xmlns="http://www.w3.org/2000/svg">
<g clip-path="url(#clip0_119_293)">
<path d="M4.10823 8.18703L1.25378 15.1664L1.66887 16.0616L6.53379 15.7634L19.7663 16.1533L27.7318 15.5051L27.0056 10.1861L24.4891 5.69729L20.1692 2.47974L14.4481 1.8697L8.66203 3.46508L4.10823 8.18703Z" fill="#F7E76E"/>
<path d="M28.3772 15.013C28.2927 15.4466 28.1854 15.8756 28.0559 16.2981C27.9242 16.6858 27.6695 16.7474 27.2521 16.652C27.004 16.5958 26.7502 16.5687 26.4958 16.5712C24.7804 16.588 23.0649 16.6454 21.3495 16.6339C18.4895 16.6148 15.631 16.5449 12.7714 16.5134C10.5631 16.4891 8.35468 16.4798 6.14617 16.4857C5.00301 16.4888 3.86065 16.5429 2.71689 16.5663C2.44075 16.5701 2.16459 16.5596 1.88953 16.5347C1.12197 16.4702 0.830992 16.1828 0.845788 15.4067C0.848204 14.8748 0.908379 14.3448 1.02524 13.826C2.16987 9.11067 4.55295 5.19463 8.88897 2.82761C13.2746 0.433498 17.8047 0.496345 22.2432 2.84369C23.9667 3.75516 25.2801 5.13466 26.3628 6.74791C27.6546 8.67272 28.2156 10.8071 28.2829 13.0965C28.2995 13.6471 28.3365 14.197 28.3772 15.013ZM13.8972 12.4755C13.9831 11.817 14.0124 10.82 13.9856 9.47684C13.9797 9.18474 14.015 8.47727 14.015 8.47727C14.015 8.47727 14.0298 7.97749 14.5295 7.99221C15.0293 8.00694 15.2716 8.15854 15.5144 8.52145C15.8816 9.0704 15.97 10.0355 15.97 10.0355C15.9553 10.5353 15.9431 10.9493 15.9258 11.5349C15.9143 11.9252 15.8631 12.4458 15.7796 12.531C16.2794 12.5457 17.0887 14.9389 17.2036 15.3749L26.7452 15.2512C26.8445 14.5747 26.6775 12.3481 26.4818 11.7126C26.1881 11.8134 25.8944 11.915 25.6002 12.0151C25.1717 12.1609 24.7489 12.3297 24.3123 12.4439C24.1394 12.4933 23.9543 12.4764 23.7932 12.3966C23.6321 12.3167 23.5067 12.1796 23.4416 12.0122C23.3149 11.6897 23.4216 11.379 23.7554 11.1482C23.8865 11.0607 24.0261 10.9868 24.1721 10.9274C24.6251 10.7349 25.0822 10.5523 25.5367 10.3633C25.766 10.268 25.9932 10.1672 26.245 10.0587C25.5807 8.25414 24.6665 6.67453 23.2446 5.36394C22.8984 5.81828 22.5812 6.24413 22.2525 6.66076C22.1251 6.83521 21.9766 6.99331 21.8104 7.13142C21.4932 7.37392 21.1803 7.37771 20.9377 7.18493C20.6952 6.99215 20.6271 6.60448 20.8255 6.26969C20.9666 6.05684 21.1306 5.86011 21.3149 5.68308C21.6482 5.33119 21.9912 4.98904 22.3744 4.5982C20.2926 3.22406 18.1124 2.52279 15.6471 2.48458C15.7085 3.16294 15.7774 3.76663 15.8107 4.3723C15.8247 4.64398 15.7998 4.91628 15.7369 5.18095C15.6553 5.52322 15.3966 5.70322 15.0471 5.72793C14.8774 5.73868 14.7093 5.69037 14.5712 5.59127C14.4333 5.49217 14.334 5.34842 14.2903 5.18444C14.2291 4.95868 14.2031 4.72486 14.2133 4.49122C14.2191 3.86758 14.2458 3.2442 14.2661 2.55696C11.7468 2.83868 9.57901 3.68733 7.6205 5.27085C7.9768 5.61531 8.28282 5.88918 8.56234 6.18923C8.75525 6.38064 8.917 6.60095 9.04174 6.84224C9.10134 6.96964 9.1137 7.11404 9.07657 7.24968C9.03945 7.38532 8.95528 7.50339 8.83906 7.58282C8.60458 7.76615 8.33146 7.82801 8.06992 7.65367C7.87568 7.52172 7.69845 7.36641 7.54223 7.1912C7.24512 6.86173 6.96875 6.51353 6.66479 6.15035C5.3663 7.49152 4.29182 9.03206 3.48234 10.7132C3.71089 10.8132 3.90358 10.9013 4.09969 10.9826C4.46354 11.1337 4.83723 11.2637 5.19017 11.4366C5.38523 11.5264 5.55636 11.6608 5.68971 11.8288C5.95084 12.1894 5.76523 12.6168 5.32208 12.6515C5.07058 12.6573 4.82144 12.6019 4.596 12.4905C4.07935 12.2564 3.58098 11.981 3.04236 11.7057C2.53045 12.9272 2.13612 14.1237 2.01526 15.4423C5.43967 15.3589 8.80173 15.2775 12.164 15.1966C12.8161 13.232 13.5001 12.7627 13.8972 12.4755ZM15.6985 15.2839C15.6085 14.517 15.3039 14.2636 14.6178 14.3799C14.3607 14.417 14.1151 14.5113 13.8994 14.6559C13.6837 14.8006 13.5033 14.9917 13.3717 15.2154L15.6985 15.2839Z" fill="#452E17"/>
</g>
<defs>
<clipPath id="clip0_119_293">
<rect width="27.5556" height="16" fill="white" transform="translate(1.24158 0.597656) rotate(1.68774)"/>
</clipPath>
</defs>
</svg>
